<svg xmlns="http://www.w3.org/2000/svg" width="3266.67" height="3109.33" viewBox="0 0 2450 2332"><g fill="#00d9ff"><path d="M1214.1 54.2c-5.2 8.4-14 22.7-19.6 31.8s-15.8 25.9-22.7 37.5c-19.7 33-35.8 59.6-38.7 64-1.5 2.2-3.8 6.1-5.1 8.7-1.4 2.7-2.8 4.8-3.2 4.8-.5 0-.8.4-.8 1 0 .5-3.6 6.9-8 14.1-4.4 7.3-8 13.3-8 13.5s-2.1 3.7-4.7 7.8c-2.7 4-6.7 10.7-9.1 14.7-2.3 4.1-7.3 12.6-11.1 18.9s-9 14.9-11.4 19-8.1 13.5-12.6 20.9c-4.4 7.4-8.1 13.5-8.1 13.6 0 .2-11.6 19.4-21.7 36-2.8 4.6-22.1 37-26.7 44.7-4.5 7.6-33.1 55.6-35.3 59.3-2.5 4-24.1 40.3-45.8 77-6.5 11-16.7 28.2-22.7 38.2-6 10.1-11.5 19.3-12.1 20.5-1.5 2.9-36.3 61.1-39.2 65.8-4.3 6.7-20.5 34-20.5 34.4 0 .3-5.1 8.9-11.3 19.3-6.3 10.3-13.4 22.3-15.8 26.6s-9.3 16-15.3 26c-39.9 66.8-64.8 108.6-73.8 124.2-5.8 9.9-15.9 27-22.4 38-6.6 11-13.5 22.7-15.3 26-1.9 3.3-5.8 9.8-8.6 14.5-2.9 4.7-12.2 20.4-20.7 35s-17.8 30.2-20.6 34.8c-2.9 4.6-5.2 8.6-5.2 8.8s-1.1 2.1-2.3 4.2c-1.3 2-5.7 9.3-9.7 16.2s-11.4 19.5-16.5 28-16.7 28.1-25.8 43.5-17.6 29.8-19 32c-1.3 2.2-8.4 14.1-15.7 26.5s-19.1 32.4-26.3 44.5c-7.1 12.1-13.8 23.2-14.9 24.7-1 1.5-1.8 3-1.8 3.4s-1.8 3.6-4 7.1-5 8-6.1 10.1c-1.2 2-6.9 11.8-12.8 21.7s-17 28.6-24.6 41.5c-24.3 41.2-32.6 55.1-42.4 71.5-5.3 8.8-10.1 16.9-10.7 18s-3.1 5.4-5.6 9.5c-2.4 4.1-5.6 9.5-7 12-3.1 5.6-16.4 28.2-26.8 45.5-8.7 14.5-20.1 33.8-32.8 55.5-4.6 8-10.8 18.3-13.7 23s-8.1 13.4-11.5 19.5c-3.5 6-10.8 18.6-16.3 28-5.6 9.3-12.8 21.7-16.2 27.5s-12.5 21.1-20.2 34-15.9 26.9-18.3 31-8.7 14.7-14 23.5c-8.7 14.5-24.7 41.4-29 49-.9 1.6-3.6 6-5.8 9.8-2.3 3.7-4.2 6.9-4.2 7.2 0 .2-4.8 8.4-10.6 18.2-5.9 9.8-14.8 24.8-19.9 33.3-8.7 14.7-15.6 26.3-49.7 84-8 13.5-17.9 30.1-21.9 36.9-10.4 17.5-13.2 22.1-15.4 25.9-1.1 1.9-4.8 7.9-8.2 13.5-3.5 5.6-6.3 10.9-6.3 11.7 0 .9 2.2 5.2 4.8 9.5 2.7 4.4 9.3 15.6 14.7 25l11.3 19.5c3.5 5.4 11.2 18.3 11.2 18.7 0 .2 1.1 2 2.4 4.1 1.3 2 7.4 12.5 13.6 23.2s13.9 23.8 17 29c3.2 5.2 9.1 15.3 13.2 22.5 4.1 7.1 10.3 17.7 13.8 23.5 12.9 21.5 15 25.1 15 25.7 0 .3 1 2 2.3 3.7 1.2 1.7 3.1 5 4.2 7.3 1.1 2.4 2.3 4.3 2.7 4.3s1.5-1.7 2.3-3.7c1.5-3.5 3.8-7.4 8.8-14.7 1.7-2.5 23.2-37.5 26.5-43.1.6-1.1 8.6-14.5 17.7-29.7 9.1-15.3 16.5-28 16.5-28.4 0-.3 1.3-2.4 2.8-4.7 1.6-2.3 7.3-11.6 12.7-20.7s10.8-18.1 12.1-20c3.6-5.7 43.7-73 47.4-79.5 1.8-3.3 5.2-8.9 7.5-12.5s6.7-10.8 9.7-16c3.1-5.2 9.9-16.7 15.2-25.5 5.4-8.8 10.1-16.7 10.6-17.5a9645 9645 0 0 1 37.7-63.5c1.3-2.2 4.1-6.9 6.2-10.5 4.6-7.9 44.1-74.5 48.4-81.5 1.7-2.8 3.8-6.4 4.7-8 .8-1.7 4.8-8.4 8.8-15 9.9-16.4 9.4-15.5 12.5-20.2 1.5-2.3 2.7-4.5 2.7-4.8 0-.4 2-4 4.5-7.9 2.5-4 4.5-7.5 4.5-7.8 0-.7 16.5-28.2 20.1-33.5 1.6-2.3 2.9-4.4 2.9-4.8 0-.3 3-5.7 6.6-11.8 3.7-6.2 7.6-12.8 8.7-14.7 1-1.9 3.4-6 5.2-9 14.8-24.7 21.5-36.1 21.5-36.6 0-.3 1.4-2.5 3-4.9 1.7-2.4 3-4.6 3-4.9s6.8-11.9 15.1-25.8c8.4-13.9 16.2-27.1 17.4-29.3 2.3-4.1 17.3-29.9 21.6-37 1.3-2.3 2.9-5 3.6-6 .6-1.1 3.3-5.6 5.9-10s6-10.1 7.5-12.8c1.6-2.6 2.9-5.2 2.9-5.7 0-.6.5-1 1-1 .6 0 1-.4 1-.8 0-.5 3.4-6.7 7.7-13.8 4.2-7.1 12.8-21.7 19.1-32.4 6.4-10.7 13.3-22.3 15.4-25.8 4.7-7.7 7.7-12.8 9.6-16.7 2.2-4.4 8.1-14.4 11.4-19.2 1.5-2.3 2.8-4.4 2.8-4.8 0-.3.8-1.8 1.9-3.3 1-1.5 7.6-12.6 14.6-24.7 13.4-23 30.8-52.6 43-73 3.9-6.6 11.4-19.2 16.5-28s12.1-20.7 15.6-26.5c3.4-5.8 10.3-17.4 15.3-25.8s9.1-15.5 9.1-15.8c0-.4 10.8-18.8 25.6-43.4 5.7-9.6 26.7-45.2 32.7-55.5 2.2-3.9 8-13.6 12.9-21.7 4.8-8.1 8.8-15.2 8.8-15.8 0-.5.5-1 1-1 .6 0 1-.4 1-.8 0-.5 3.3-6.4 7.3-13.3 4.1-6.8 12-20.3 17.6-29.9 5.7-9.6 14.1-24 18.8-32s10.4-17.7 12.6-21.5c2.2-3.9 5-8.6 6.2-10.5 3.4-5.4 7.9-13.1 10.7-18 9-15.9 13.2-23.1 19-32.5 6.2-10.1 22.3-37.3 25-42.3 1-1.8 4.7-8 8.3-13.8 3.6-5.9 6.5-10.9 6.5-11.3 0-.3 1.6-2.9 3.6-5.6 2-2.8 3.9-5.9 4.4-7 .4-1.1 5.1-9.4 10.4-18.4s9.6-16.8 9.6-17.2c0-.5.5-.9 1-.9.6 0 1-.4 1-.9 0-.8 6.4-12.1 14.5-25.6 2-3.3 7.4-12.5 12.1-20.5s10.5-17.8 13-21.8c2.4-4 4.4-7.5 4.4-7.7 0-.3 1.5-2.9 3.4-5.8 4.5-6.9 23.3-38.6 27.1-45.7 1.7-3 4-6.9 5.1-8.5 1.2-1.7 2.8-4.4 3.6-6 .8-1.7 6-10.4 11.5-19.5 11-18.2 25.8-43.3 29.3-49.5 3.9-7 34.2-57.8 36.6-61.6 1.3-1.9 2.4-3.9 2.4-4.3s1.3-2.6 2.9-4.9c1.5-2.3 4.1-6.5 5.6-9.2 6.9-12.1 8.2-14.3 18.2-31 3.4-5.5 9.3-15.6 13.3-22.5s9-15.2 11.1-18.5 5.9-9.6 8.5-14 5.8-9.7 7.1-11.9c1.4-2.1 3.5-5.7 4.7-8 1.3-2.2 6.7-11.3 12.1-20.1s12.2-20.2 15.2-25.4c10.2-17.9 34.1-56.9 36-58.9 2.4-2.5 1.6-4.7-6.5-17.7-1.7-2.8-5-8.2-7.2-12-2.3-3.9-5.9-9.9-8-13.4-2.2-3.4-4-6.5-4-6.6 0-.2-4.5-7.9-10.1-17.2-5.6-9.2-10.9-18.2-12-20-1-1.8-5-8.4-8.9-14.8-3.8-6.4-7-11.8-7-12s-4.5-7.9-10.1-17.2c-5.5-9.2-10.9-18.2-11.8-19.8-1-1.7-6.4-10.7-12.1-20-5.7-9.4-10.9-18.1-11.7-19.5-4.3-8-14-23.4-14.8-23.7-.6-.2-5.3 6.6-10.4 14.9M1344 250.6c0 .8-.5 1.2-1 .9-.6-.4-.8-1.1-.5-1.6.9-1.4 1.5-1.1 1.5.7m-2 2.4c.4 2.4.1 4-.7 4-.5 0-.9-1.6-1-3.6-.2-3.4 1.3-3.7 1.7-.4m-3.8 6.5c-.2 1.4-.6 2.5-.8 2.5s-.4-1.1-.4-2.5.4-2.5.9-2.5c.4 0 .6 1.1.3 2.5m-25.8 41.9c-2.1 1.5-3 1.4-1.9-.3.3-.6 1.4-1.1 2.3-1.1 1.3 0 1.3.2-.4 1.4M1229.5 441c-.3.5-1.1 1-1.6 1-.6 0-.7-.5-.4-1 .3-.6 1.1-1 1.6-1 .6 0 .7.4.4 1m-32.8 56.6c-.3.3-1.2.4-1.9.1-.8-.3-.5-.6.6-.6 1.1-.1 1.7.2 1.3.5m-1.7 2.8c0 .3-.4.8-1 1.1-.5.3-1 .1-1-.4 0-.6.5-1.1 1-1.1.6 0 1 .2 1 .4m-40 68.6c0 .5-.4 1-1 1-.5 0-1-.5-1-1 0-.6.5-1 1-1 .6 0 1 .4 1 1m-5 7.5c0 .8-.7 1.5-1.6 1.5-1.4 0-1.4-.3-.4-1.5.7-.8 1.4-1.5 1.6-1.5s.4.7.4 1.5m-35.3 60.1c-.9.9-2.8-.6-2.1-1.8.4-.6 1-.6 1.7.1.6.6.8 1.3.4 1.7m-5.4 6.9c-.3.9-.8 1.4-1 1.1-.3-.3-.2-.9.2-1.5.9-1.6 1.5-1.3.8.4m-2.8 5.4c.3.5.1 1.2-.5 1.6-.5.3-1-.1-1-.9 0-1.8.6-2.1 1.5-.7m-4.5 8.7c0 .8-.5 1.2-1 .9-.6-.4-.8-1.1-.5-1.6.9-1.4 1.5-1.1 1.5.7m-3 5.4c0 .5-.5 1-1.1 1-.5 0-.7-.5-.4-1 .3-.6.8-1 1.1-1 .2 0 .4.4.4 1m-4.8 5c-.6 1.5-1.1 1.9-1.6 1.2-.4-.7-.1-1.8.6-2.6 1.7-1.9 2-1.4 1 1.4m-5.2 13c0 .5-.5 1-1.1 1-.5 0-.7-.5-.4-1 .3-.6.8-1 1.1-1 .2 0 .4.4.4 1m-8 9.2c0-.6.4-1.2 1-1.2.5 0 .7.7.3 1.5-.7 1.9-2.5 1.5-3.1-.6-.3-1.1-.2-1.1.7.1.7 1 1.1 1.1 1.1.2m-2.6 7.3c-.4.8-.8 1.5-1 1.5s-.4-.7-.4-1.5.4-1.5 1-1.5c.5 0 .7.7.4 1.5m-4.4 8.5c0 .5-.2 1-.4 1-.3 0-.8-.5-1.1-1-.3-.6-.1-1 .4-1 .6 0 1.1.4 1.1 1m-11.9 20.3c-.6 1.5-1.5 2.7-2.1 2.7s-1.5 1-2 2.2c-.6 1.5-.9 1.7-.9.7-.1-.9.8-2.4 1.9-3.4 1.3-1.2 1.8-2.6 1.4-3.9-.4-1.7-.3-1.8.5-.6.9 1.3 1.1 1.2 1.2-.5 0-1.1.3-1.5.5-.9.3.6 0 2.3-.5 3.7m-35.7 60.2c-.4.8-.8 1.5-1 1.5s-.4-.7-.4-1.5.4-1.5 1-1.5c.5 0 .7.7.4 1.5m-2.6 4.9c-1 .7-1.8 1.9-1.8 2.5 0 .7-.4.9-1 .6-1.3-.8 1.1-4.5 3-4.5 1.2.1 1.2.3-.2 1.4m-8 11.1c-.3.3-.9-.2-1.2-1.2-.6-1.4-.5-1.5.5-.6.7.7 1 1.5.7 1.8M986 852.4c0 .3-.4.8-1 1.1-.5.3-1 .1-1-.4 0-.6.5-1.1 1-1.1.6 0 1 .2 1 .4m-11.8 19.8c-.8.8-.9.4-.5-1.3.4-1.3.8-1.8 1.1-1 .2.7-.1 1.8-.6 2.3M926 957c0 1.1-.4 2-.9 2s-.7-.9-.4-2 .7-2 .9-2 .4.9.4 2m-3 3.9c0 1.2-2 2.5-4.1 2.6-1.1.1-1.5-.4-1.2-1.2.4-1 .9-1.1 1.9-.2 1.1.9 1.4.8 1.4-.5 0-.9.5-1.6 1-1.6.6 0 1 .4 1 .9m-5.6 8.6c-.4.8-.8 1.5-1 1.5s-.4-.7-.4-1.5.4-1.5 1-1.5c.5 0 .7.7.4 1.5M906 988c0 .5-.2 1-.4 1-.3 0-.8-.5-1.1-1-.3-.6-.1-1 .4-1 .6 0 1.1.4 1.1 1m-19.9 31.7c-1.2 2-1.4 1.4-.5-1.2.4-.9.9-1.4 1.1-1.1.3.2 0 1.3-.6 2.3m-54.1 95.7c0 .2-.7.9-1.5 1.6-1.3 1.1-1.4 1-.9-.4s2.4-2.3 2.4-1.2m-11 20.6c-.6 1.1-1.5 2-2.1 2s-.3-.7.6-1.6c.9-1 1.3-2.5 1-3.8-.5-1.8-.5-1.9.5-.4.8 1.3.8 2.3 0 3.8m-152 257c-.8.5-1.9 1-2.5 1-.5 0-.3-.5.5-1s2-1 2.5-1c.6 0 .3.5-.5 1m-19 32c0 .5-.2 1-.4 1-.3 0-.8-.5-1.1-1-.3-.6-.1-1 .4-1 .6 0 1.1.4 1.1 1m-16 26c0 .5-.5 1-1.1 1-.5 0-.7-.5-.4-1 .3-.6.8-1 1.1-1 .2 0 .4.4.4 1m-40.3 70.6c-.3.3-1.2.4-1.9.1-.8-.3-.5-.6.6-.6 1.1-.1 1.7.2 1.3.5m-8.2 10.4c.3.5.1 1-.4 1-.6 0-1.1-.5-1.1-1 0-.6.2-1 .4-1 .3 0 .8.4 1.1 1m-11.1 21c-1.6 3.1-2.4 3.9-2 1.7.5-2.4 1.8-4.7 2.6-4.7.5 0 .2 1.3-.6 3m-4.1 7.9c-.4 1.6-.8 1.7-1.8.8-1.5-1.4-1-2.7 1-2.7.8 0 1.1.7.8 1.9m-2.3 2.5c0 .2-.8 1-1.7 1.7-1.6 1.3-1.7 1.2-.4-.4s2.1-2.1 2.1-1.3m-16.3 26.8c-.3.8-.6.5-.6-.6-.1-1.1.2-1.7.5-1.3.3.3.4 1.2.1 1.9m-1.7 2.6c0 1.3-1.2 2.2-2.2 1.6s-.1-2.4 1.3-2.4c.5 0 .9.4.9.8m-40.7 69.7c-.3.9-.8 1.4-1 1.1-.3-.3-.2-.9.2-1.5.9-1.6 1.5-1.3.8.4m-38.6 66.7c-.3.8-.6.5-.6-.6-.1-1.1.2-1.7.5-1.3.3.3.4 1.2.1 1.9M461 1745c0 .5-.5 1-1.1 1-.5 0-.7-.5-.4-1 .3-.6.8-1 1.1-1 .2 0 .4.4.4 1m-2.5 3c.3.5.1 1-.4 1-.6 0-1.1-.5-1.1-1 0-.6.2-1 .4-1 .3 0 .8.4 1.1 1m-8.1 14.5c-.7 1.6-2.4 2.1-2.4.6 0-.8.7-1.3 2.7-2 .1-.1 0 .6-.3 1.4m-2.4 3.4c0 .5-.6 1.4-1.4 2-1.2 1-1.3.8-.9-.8.5-2.1 2.3-3 2.3-1.2m-2 5.1c0 .5-.4 1-1 1-.5 0-1-.5-1-1 0-.6.5-1 1-1 .6 0 1 .4 1 1m-7.5 10c.3.5.1 1-.4 1-.6 0-1.1-.5-1.1-1 0-.6.2-1 .4-1 .3 0 .8.4 1.1 1m-3 4.8c-.3.3-1.1 0-1.8-.7-.9-1-.8-1.1.6-.5 1 .3 1.5.9 1.2 1.2m-21.3 33.7c-.8 1.6-.9 1.6-1.5.1-.4-1-.3-1.5.3-1.1.6.3 1 .1 1-.6s.3-1 .6-.6c.3.3.2 1.3-.4 2.2m-3.2 8.5c0 .5-.7 1-1.6 1-.8 0-1.2-.5-.9-1 .3-.6 1-1 1.6-1 .5 0 .9.4.9 1m-6 12.5c0 .2-1 .9-2.2 1.5-2.2 1.1-2.2 1-.4-.4 2.1-1.7 2.6-1.9 2.6-1.1m-5.3 8.2c-.3 1-.5.4-.5-1.2 0-1.7.2-2.4.5-1.8.2.7.2 2.1 0 3m-2 1.5c-.3.8-.6.5-.6-.6-.1-1.1.2-1.7.5-1.3.3.3.4 1.2.1 1.9m-3.7 8.8c0 .5-.5 1-1.1 1-.5 0-.7-.5-.4-1 .3-.6.8-1 1.1-1 .2 0 .4.4.4 1m-28.3 47.2c-.3.8-.6.5-.6-.6-.1-1.1.2-1.7.5-1.3.3.3.4 1.2.1 1.9m-8.6 12.1c-.8.8-1.1.7-1.1-.4 0-2 1.3-3.4 1.8-1.9.3.7-.1 1.7-.7 2.3m-.6 2.7c-.3.5-1.2 1-1.8 1-.7 0-.6-.4.3-1 1.9-1.2 2.3-1.2 1.5 0m-2.5 3c0 .5-.4 1-1 1-.5 0-1-.5-1-1 0-.6.5-1 1-1 .6 0 1 .4 1 1m-16 29.5c0 .8-.2 1.5-.4 1.5s-.6-.7-1-1.5c-.3-.8-.1-1.5.4-1.5.6 0 1 .7 1 1.5m-29.9 47.8c-1 .9-1.1.8-.5-.6.3-1 .9-1.5 1.2-1.2s0 1.1-.7 1.8m-2.1 2.7c0 .5-.2 1-.4 1-.3 0-.8-.5-1.1-1-.3-.6-.1-1 .4-1 .6 0 1.1.4 1.1 1m-12 20.4c0 .3-.4.8-1 1.1-.5.3-1 .1-1-.4 0-.6.5-1.1 1-1.1.6 0 1 .2 1 .4m-8.6 16.4c.2.4-.5.9-1.7.9-1.7.2-1.9 0-.7-.7 1.8-1.2 1.8-1.2 2.4-.2m-3.4 3.2c0 .5-.4 1-1 1-.5 0-1-.5-1-1 0-.6.5-1 1-1 .6 0 1 .4 1 1m-11.4 21.8c-1.1 1-1.5-.4-.8-2.8l.7-2.5.3 2.3c.2 1.3.1 2.6-.2 3m-15.6 25c0 1.5-.2 1.5-1 .2-1.3-2-1.3-3.3 0-2.5.6.3 1 1.4 1 2.3m-33 54.8c0 .8-.5 1.2-1 .9-.6-.4-.8-1.1-.5-1.6.9-1.4 1.5-1.1 1.5.7m-11 18.4c0 .5-.2 1-.4 1-.3 0-.8-.5-1.1-1-.3-.6-.1-1 .4-1 .6 0 1.1.4 1.1 1m-17.9 30.3c-1 .9-1.1.8-.5-.6.3-1 .9-1.5 1.2-1.2s0 1.1-.7 1.8m-9.6 10.7c-.3.5-1.2 1-1.8 1-.7 0-.6-.4.3-1 1.9-1.2 2.3-1.2 1.5 0m-31.2 34.1c.4 1.6.3 1.8-.9.8-1.6-1.3-1.9-2.9-.5-2.9.5 0 1.1.9 1.4 2.1m6.7 11c0 .5-.4.9-.8.9-.5 0-.9-.7-.9-1.5s.4-1.2.9-.9c.4.3.8.9.8 1.5"/><path d="M13706 20393c-11-21-50-87-86-148-37-60-161-267-275-460-114-192-248-417-298-500-49-82-103-175-120-205-32-59-81-141-364-615-257-432-295-496-316-535-11-19-68-116-127-215s-173-292-255-430c-81-137-211-358-290-490-78-132-158-267-177-300-20-33-68-113-107-178s-71-120-71-123c0-2-26-48-58-102-32-53-85-142-117-197s-84-143-115-195c-79-131-231-388-325-550-43-74-111-189-151-255s-103-174-141-240c-98-170-377-646-431-735-101-167-262-442-262-447 0-3-14-25-30-50-17-24-40-63-52-86-11-23-49-87-83-142-72-115-331-555-448-760-44-77-87-151-97-165-18-26-177-295-215-365-30-54-442-755-617-1048-32-53-67-114-78-135-11-20-26-46-33-57-25-39-62-101-73-120-25-47-273-469-527-900-55-93-117-199-138-235s-48-83-62-105c-24-40-153-259-309-525-47-80-130-221-185-315-55-93-142-242-193-330s-197-333-323-545-278-468-337-570-151-259-205-350-128-217-165-280-90-153-117-200c-151-255-216-365-270-455-80-133-216-361-240-405-11-19-102-174-203-345-101-170-212-359-248-420-35-60-74-126-87-145-12-19-150-249-305-510s-290-486-299-500c-10-14-32-52-51-85-35-63-280-477-358-605-25-41-190-316-367-610-843-1400-880-1461-951-1558-24-32-4-45 56-36 25 4 4718 8 10430 10l10385 4 44 67c25 38 107 172 182 298 76 127 188 313 249 415 128 213 310 520 394 665 32 55 82 138 111 185s89 148 135 225c45 77 93 157 106 177 13 21 24 40 24 42 0 3 20 37 45 75s45 74 45 80c0 8-2628 11-9196 11-6817 0-9200 3-9210 11-36 30-12 87 136 320 21 32 159 258 195 317 19 31 100 167 110 184 5 10 32 55 59 100 27 46 65 110 84 143 20 33 59 96 87 140 59 93 82 130 241 400 64 110 134 227 154 260 21 33 54 87 73 120 96 162 165 277 276 458 66 109 121 199 121 202 0 4 67 114 212 346 43 69 78 129 78 133s13 26 28 49c16 23 127 206 247 407s263 439 318 530 110 183 122 205 48 83 80 135c61 101 73 120 228 385 55 94 117 197 137 230 42 68 217 361 265 445 18 30 63 107 102 170 38 63 81 135 95 160s98 169 188 320 173 294 186 316c12 23 33 59 47 80 13 22 46 76 73 122s71 120 98 165c26 45 61 105 77 133 15 28 58 103 95 165 37 63 90 152 117 199s71 121 97 165 57 96 68 115c38 67 199 346 249 430 28 47 60 101 70 120 11 19 78 134 149 256 71 121 136 232 144 247 8 14 36 61 61 104 114 194 288 493 319 548 18 33 63 110 99 170 36 61 72 122 81 137 8 15 68 118 133 228 64 111 117 204 117 206 0 3 13 24 28 47 16 23 64 105 107 182s102 182 132 233c29 52 53 98 53 103s4 9 9 9 11 8 15 18c7 20 29 59 201 352 34 58 73 125 87 150s41 72 60 105 75 128 123 210c48 83 120 206 160 275 39 69 106 184 148 257 43 73 77 137 77 142s3 11 8 13c4 2 15 17 24 33 10 17 71 119 135 228 65 109 124 210 132 225s75 131 149 257c74 127 161 275 192 330 63 108 101 155 129 155 41 0 96-75 286-390 64-107 128-212 142-232s32-50 41-65c40-69 197-330 212-353 10-14 43-70 75-125s68-116 80-135 81-132 152-250c118-196 183-304 518-865 59-99 118-196 130-215 46-73 125-208 125-212 0-3 35-63 78-134s85-140 93-154 19-32 25-40 23-35 37-60c43-78 122-212 167-285 23-38 83-140 133-225 49-85 111-189 137-230s80-131 120-200 97-163 125-210c57-94 140-233 225-380 18-30 59-99 155-260 54-91 126-212 161-270 34-58 114-193 179-300s125-208 134-225c9-16 64-109 122-205s139-231 179-300 100-170 133-225 101-170 152-255c50-85 117-195 147-245 30-49 83-137 117-195s96-161 136-230c76-128 178-298 251-418 22-37 94-157 159-267s138-233 162-272c24-40 43-75 43-77s30-53 67-113c36-59 89-146 117-193 201-340 292-491 317-527 16-23 29-44 29-47 0-4 19-37 41-74 36-58 145-242 199-337 9-16 72-122 140-235s131-219 141-237c36-63 161-268 173-283 7-8 31-47 54-87 53-90 55-130 11-167l-31-26H7720l-13-22c-8-13-61-99-118-193-57-93-106-174-109-180s-32-55-65-108c-33-54-92-151-130-215-39-64-96-159-128-209-31-51-57-95-57-98s-16-32-37-63c-20-31-131-214-248-407-304-503-304-503-354-579-25-37-50-74-56-82-5-7-6-16-3-19 4-4 521-6 1150-6 4954 5 16389 3 16416-3 17-4 32-4 32 1 0 4-20 39-45 76-25 38-58 92-73 120-16 29-48 84-72 122-23 39-68 113-98 165s-85 145-122 205c-37 61-123 207-192 325-208 357-321 549-392 665-55 91-146 244-237 402-9 15-53 88-98 161-45 74-81 135-81 136 0 6-103 182-121 208-11 14-19 28-19 31 0 5-82 147-152 262-81 133-202 338-207 350-2 5-17 29-32 52-16 23-29 44-29 47 0 5-102 178-365 621-78 132-155 263-170 290-15 28-36 62-46 77-11 14-19 29-19 32s-32 57-70 120c-39 63-101 168-138 233-38 65-92 155-120 201-29 46-52 86-52 88 0 3-13 25-30 49-16 24-30 46-30 49s-31 57-70 121c-38 64-70 118-70 120s-22 40-50 84c-27 44-50 83-50 85 0 3-50 87-111 188s-123 203-137 228c-14 24-49 84-78 133-30 49-54 92-54 94 0 3-8 17-18 31-11 15-32 52-49 82-32 59-115 200-247 420-44 74-86 144-92 155s-25 44-42 73c-18 29-32 54-32 56s-31 53-68 113c-38 59-86 140-107 178-21 39-56 99-79 135s-77 126-120 200-109 187-147 250c-37 63-118 201-180 305-61 105-138 235-171 290s-70 118-83 140c-12 22-47 81-77 130-72 118-256 427-348 585-40 69-97 165-127 214-29 48-53 90-53 91 0 2-27 47-60 100s-60 98-60 100c0 3-36 63-80 136-44 72-80 132-80 134s-30 52-67 112c-36 59-117 194-178 298-111 189-375 633-548 920-49 83-100 168-112 190-42 73-140 239-178 300-21 33-107 177-192 320-156 266-180 304-302 505-39 63-83 138-98 165-15 28-36 62-46 77-11 14-19 29-19 32s-20 36-44 73-56 91-71 118c-15 28-53 93-84 145-30 52-62 107-71 121-28 48-462 772-548 914-47 77-93 154-102 170-9 17-63 106-119 199-55 92-101 170-101 173 0 2-13 24-30 48-16 24-30 46-30 49 0 2-29 51-63 108-71 115-149 245-179 298-11 19-26 42-33 50s-46 74-87 145c-41 72-121 207-178 300-57 94-112 185-122 204-38 67-453 758-544 906-51 83-107 178-126 212-18 35-38 63-43 63-6 0-19-17-29-37zm-166-4239c0-8-4-12-10-9-5 3-10 10-10 16 0 5 5 9 10 9 6 0 10-7 10-16zm-685-1164c3-5-1-10-10-10s-13 5-10 10c3 6 8 10 10 10s7-4 10-10zm-708-1211c2-17-1-18-13-8-13 11-10 20 11 29 1 0 1-9 2-21zm-656-1132c-10-9-11-8-5 6 3 10 9 15 12 12s0-11-7-18zm-1286-2217c-3-5-12-10-18-10-7 0-6 4 3 10 19 12 23 12 15 0zM8980 8340c-6-12-14-20-17-17-2 3 1 14 8 26 17 26 24 19 9-9zm9500-55c0-8-2-15-4-15s-6 7-10 15c-3 8-1 15 4 15 6 0 10-7 10-15zm-9555-32c-25-18-31-9-8 14 10 10 20 15 22 9 2-5-4-15-14-23zm9758-318c-3-9-8-14-10-11-3 3-2 9 2 15 9 16 15 13 8-4zm-9983-70c0-8-4-15-9-15-13 0-22 16-14 24 11 11 23 6 23-9zm-116-170c-4-8-11-15-16-15-6 0-5 6 2 15 7 8 14 15 16 15s1-7-2-15zm-74-145c0-5-2-10-4-10-3 0-8 5-11 10-3 6-1 10 4 10 6 0 11-4 11-10zm-293-485c0-8-4-12-9-9s-6 10-3 15c9 13 12 11 12-6zm-522-874c3-5 1-12-5-16-5-3-10 1-10 9 0 18 6 21 15 7zm-145-245c0-3-4-8-10-11-5-3-10-1-10 4 0 6 5 11 10 11 6 0 10-2 10-4zm12430-171c0-8-4-15-10-15-5 0-7 7-4 15 4 8 8 15 10 15s4-7 4-15zm59-74c12-8 11-12-4-28-18-17-19-17-12 1 5 12 3 23-5 28-7 4-8 8-3 8 6 0 16-4 24-9zm-12675-57c3-8 2-12-4-9s-10 10-10 16c0 14 7 11 14-7zm-241-394c3-11 1-20-4-20s-9 9-9 20 2 20 4 20 6-9 9-20zm-60-115c-3-9-8-14-10-11-3 3-2 9 2 15 9 16 15 13 8-4zm-166-257c-3-7-5-2-5 12s2 19 5 13c2-7 2-19 0-25zm-117-206c0-4-10-9-22-9-18-2-20 0-8 7 18 12 30 13 30 2zm-120-192c0-5-4-10-10-10-5 0-10 5-10 10 0 6 5 10 10 10 6 0 10-4 10-10zm-48-82c-7-7-12-8-12-2 0 14 12 26 19 19 2-3-1-11-7-17zm-27-48c3-6-1-7-9-4-18 7-21 14-7 14 6 0 13-4 16-10zm-139-221c3-6 1-15-5-20s-9-6-6-3c3 4 0 13-6 21-8 9-8 13-1 13 6 0 14-5 18-11zm15234-869c0-5-4-10-10-10-5 0-10 5-10 10 0 6 5 10 10 10 6 0 10-4 10-10zm-2645-38c-3-3-11 0-18 7-9 10-8 11 6 5 10-3 15-9 12-12zm-12350-2c3-5-1-10-9-10-9 0-16 5-16 10 0 6 4 10 9 10 6 0 13-4 16-10zm7843-10c3-13 2-13-7 0-10 13-12 13-21 0s-11-13-21 0c-8 11-12 12-16 3-2-7-9-13-15-13-7 0-6 5 1 14 15 18 73 15 79-4zm96 3c-12-12-16-12-28 0s-10 14 14 14 26-2 14-14zm199-2c-13-12-16-12-24 0-6 9-11 11-16 3-10-13-55-13-69 1-8 8 8 11 56 11 59 0 65-2 53-15zm170 12c-13-2-33-2-45 0-13 2-3 4 22 4s35-2 23-4zm397-3c0-5-5-10-11-10-5 0-7 5-4 10 3 6 8 10 11 10 2 0 4-4 4-10zm95 0c4-6-6-10-22-9-25 0-26 1-8 9 11 5 21 9 22 9 1 1 5-3 8-9zm89-2c-3-4-11-5-19-1-21 7-19 12 4 10 11 0 18-5 15-9zm316 4c0-4-18-6-40-4s-40 6-40 8 18 4 40 4 40-3 40-8zm1035-3c11-16 1-19-13-3-7 8-8 14-3 14s13-5 16-11zm6825-4c0-11-29-11-33-1s1 12 14 9c10-3 19-7 19-8zm45 5c3-5-1-10-10-10s-13 5-10 10c3 6 8 10 10 10s7-4 10-10zm-16418-6c-3-3-12-4-19-1-8 3-5 6 6 6 11 1 17-2 13-5zm-1567-144c0-5-8-10-17-10-15 0-16 2-3 10 19 12 20 12 20 0zm-45-60c3-5-1-10-9-10-9 0-13-6-10-14s1-17-5-21c-12-7-15 14-5 39 7 18 20 21 29 6zm-65-134c0-2-7-7-16-10-8-3-12-2-9 4 6 10 25 14 25 6zm17880-1004c0-5-7-9-15-9s-12 4-9 9c3 4 9 8 15 8 5 0 9-4 9-8zm-83-134c-3-8-6-5-6 6-1 11 2 17 5 13 3-3 4-12 1-19zm-37-72c0-3-4-8-10-11-5-3-10-1-10 4 0 6 5 11 10 11 6 0 10-2 10-4zm-422-701c-3-3-9 2-12 12-6 14-5 15 5 6 7-7 10-15 7-18zM10986 601c-8-12 20-22 42-15 16 5 16 5 0-6-13-8-23-8-38 0-17 9-20 30-4 30 3 0 3-4 0-9zm-8756-16c0-8-4-15-9-15-13 0-22 16-14 24 11 11 23 6 23-9zm1696 3c-10-6-22-6-26-2-5 5 3 10 18 11 22 1 24 0 8-9zm1749-6c-3-3-11 0-18 7-9 10-8 11 6 5 10-3 15-9 12-12zm50 8c-3-5-12-10-18-10-7 0-6 4 3 10 19 12 23 12 15 0zm190-8c-3-3-11 0-18 7-9 10-8 11 6 5 10-3 15-9 12-12zm4320 0c-3-3-11 0-18 7-9 10-8 11 6 5 10-3 15-9 12-12zm292 4c4-4-27-5-69-4-100 5-110 14-13 13 41-1 78-5 82-9zm33 4c0-5-4-10-10-10-5 0-10 5-10 10 0 6 5 10 10 10 6 0 10-4 10-10zm567-7c0-8-6-9-19-2-10 5-18 11-18 12 0 2 8 3 18 3s19-6 19-13zm1469 5c3-3-8-5-25-4-16 1-32 4-35 7-4 3 7 5 24 4s33-4 36-7zm968 2c-8-7-64-9-68-1-3 3 13 6 34 6s36-2 34-5zm671-8c-3-3-11 0-18 7-9 10-8 11 6 5 10-3 15-9 12-12zm50 8c-3-5-12-10-18-10-7 0-6 4 3 10 19 12 23 12 15 0zm1515 2c0-5-14-9-30-9q-30 0-18 9c17 10 48 10 48 0zm35-10c-3-3-11 0-18 7-9 10-8 11 6 5 10-3 15-9 12-12zm160 0c-3-3-11 0-18 7-9 10-8 11 6 5 10-3 15-9 12-12zm205 8c0-5-4-10-10-10-5 0-10 5-10 10 0 6 5 10 10 10 6 0 10-4 10-10zm35-8c-3-3-11 0-18 7-9 10-8 11 6 5 10-3 15-9 12-12zm128 8c-2-3-27-5-54-6-27 0-45 2-39 6 12 8 101 8 93 0zm112-8c-3-3-11 0-18 7-9 10-8 11 6 5 10-3 15-9 12-12zm52 4c0-8-6-12-15-9-11 5-11 7 0 14 7 5 13 9 14 9 0 0 1-6 1-14zm557 4c-8-7-64-9-68-1-3 3 13 6 34 6s36-2 34-5zm381 1c7-12-12-24-25-16-11 7-4 25 10 25 5 0 11-4 15-9zm739-6c4-13 2-13-14-5-10 5-25 7-33 4s-18-1-22 5c-4 7 6 11 28 11s37-6 41-15zm1956 4c0-6 7-8 18-4 12 4 14 3 6-5-6-6-18-8-27-4-18 7-23 24-7 24 6 0 10-5 10-11zm-12675-9c3-6-1-7-9-4-18 7-21 14-7 14 6 0 13-4 16-10zm80 0c3-6-1-7-9-4-18 7-21 14-7 14 6 0 13-4 16-10zm79-1c4-3-7-5-24-4s-33 4-36 7 8 5 25 4c16-1 32-4 35-7zm2116 7c0-2-7-7-16-10-8-3-12-2-9 4 6 10 25 14 25 6zm1325-6c3-6-1-7-9-4-18 7-21 14-7 14 6 0 13-4 16-10zm2592 4c-3-3-12-4-19-1-8 3-5 6 6 6 11 1 17-2 13-5zm928-4c3-6-1-7-9-4-18 7-21 14-7 14 6 0 13-4 16-10zm960 0c3-6-1-7-9-4-18 7-21 14-7 14 6 0 13-4 16-10zm480 0c3-6-1-7-9-4-18 7-21 14-7 14 6 0 13-4 16-10zm355 6c0-2-7-7-16-10-8-3-12-2-9 4 6 10 25 14 25 6zm925-6c3-6-1-7-9-4-18 7-21 14-7 14 6 0 13-4 16-10zm240 0c3-6-1-7-9-4-18 7-21 14-7 14 6 0 13-4 16-10zm120 0c3-6-1-7-9-4-18 7-21 14-7 14 6 0 13-4 16-10zm119-1c-4-8-91-5-99 3-3 2 19 4 49 4 30-1 52-4 50-7zm160 0c4-3-17-5-45-3-28 1-53 4-56 7-2 3 18 5 46 3 27-1 52-4 55-7zm1081 1c3-6-1-7-9-4-18 7-21 14-7 14 6 0 13-4 16-10zm1085-3c0-4-13-6-29-5s-28 5-25 9c5 9 54 6 54-4zm2575 3c3-5 1-10-4-10-6 0-11 5-11 10 0 6 2 10 4 10 3 0 8-4 11-10zm85 0c0-5-7-7-15-4-8 4-15 8-15 10s7 4 15 4 15-4 15-10z" style="stroke:#00d9ff;stroke-opacity:1;fill:#00d9ff;fill-opacity:1" transform="matrix(.1 0 0 -.1 0 2332)"/><path d="M1354.8 802.7c-4.7 8.2-10.8 18.6-13.6 23.3-2.7 4.7-11.3 19.5-19.2 33-7.8 13.5-15.9 27.4-18 31s-8.5 14.6-14.2 24.5c-20.5 35.4-46 78.9-49.4 84-1.2 1.9-.9 2.8 2.9 8.5 2.4 3.6 7.4 11.9 11.1 18.5 3.8 6.6 8.3 14.2 10.1 17 1.8 2.7 7.2 11.7 12 20 4.9 8.2 10.4 17.5 12.2 20.5 1.9 3 5.3 8.6 7.7 12.5 2.4 3.8 13 21.6 23.6 39.5s20.9 35.2 23 38.5c3.8 6.2 7.6 12.7 12 20.5 2.2 4 38.8 65.2 58 96.8 3.8 6.3 7 11.7 7.2 12 .2.4 5.5 9.5 11.9 20.2s12.4 20.8 13.3 22.5c.9 1.6 3.7 6.1 6.1 10 2.4 3.8 7.6 12.6 11.6 19.5s8.4 14.3 9.9 16.5 5.3 8.5 8.4 14c3.2 5.5 7.7 13.1 10 17 4.5 7.3 39.6 65.8 42.6 71 8 13.9 41.8 70.7 50 84 5.5 8.9 10.1 16.6 12 20.1 1 1.7 5.7 9.5 10.6 17.5 4.8 7.9 11.9 19.8 15.8 26.4 8.9 15.3 38.3 64.2 40.5 67.5 1 1.4 4.4 7 7.6 12.5s9.6 16.2 14.2 23.7l8.4 13.7h251l-1.6-2.5c-2-3.1-15.1-24.7-17.6-29.2-1.1-1.7-2.8-4.8-3.9-6.7s-6.5-11-12.1-20.2c-5.6-9.3-12.1-20.2-14.4-24.3s-6.8-11.8-10-17c-3.1-5.2-6.5-10.9-7.5-12.5-.9-1.7-9-15.2-18-30-8.9-14.9-20.2-33.8-25-42-9.6-16.6-26.2-44.4-48.4-81.3-8-13.3-14.6-24.4-14.6-24.6s-4.6-8-10.1-17.2c-5.6-9.3-11-18.3-11.9-19.9-1-1.7-4.4-7.3-7.5-12.5-3.2-5.2-6.5-10.9-7.4-12.5-.9-1.7-6.2-10.7-11.7-20-5.6-9.4-13-22-16.6-28-3.6-6.1-11.1-18.7-16.8-28-5.7-9.4-11.1-18.4-12-20-5.6-9.5-18.5-31.3-23.2-39-3-5-10.1-16.9-15.8-26.5s-12.9-21.8-16-27-11.7-19.6-19-32c-7.4-12.4-17.1-28.7-21.7-36.3-4.6-7.7-8.3-14.1-8.3-14.4s-.8-1.7-1.9-3.1c-1-1.5-2.9-4.6-4.2-6.8-1.3-2.3-9.8-16.5-18.8-31.5-9-15.1-21.6-36.2-27.9-46.9s-13.8-23.3-16.7-28c-2.8-4.7-6.1-10.1-7.2-12s-6.5-10.9-12-20c-12.5-20.6-25-41.5-27.3-45.5-1-1.7-7.3-12.3-14-23.5-6.8-11.3-13.1-22-14.2-23.8-6.1-10.9-10.1-17.7-14.8-25.2-6.4-10.3-22.6-36.8-33.2-54.5-11-18.2-16.2-26.4-16.9-26.5-.3 0-4.4 6.6-9.1 14.7m-62.3 271.4c1.1 1.6.1 1.9-1.3.3-.7-.8-.8-1.4-.3-1.4s1.3.5 1.6 1.1m47 78.9c.3.5.1 1-.4 1-.6 0-1.1-.5-1.1-1 0-.6.2-1 .4-1 .3 0 .8.4 1.1 1m359.5 600c.8.5 1.1 1 .5 1-.5 0-1.7-.5-2.5-1s-1-1-.5-1c.6 0 1.7.5 2.5 1"/><path d="M14789.55 3186.37c.18.28.26.63.51.83 1.07.83 2.8 1.14 4.04 1.24 2.5.2 4.11-.1 6.6-.38l-83.36 60.89c-.83-.08-1.67-.23-2.5-.23-4.9 0-9.64 1.36-14.23 2.9z" style="fill:#00d9ff;fill-opacity:1;stroke:#00d9ff;stroke-width:7.5;stroke-opacity:1" transform="matrix(.1 0 0 -.1 0 2332)"/><path d="M14760.18 3173.89c-.5 1.34-1 2.38-.55 4.03a16 16 0 0 0 2.28 4.67c1.61 2.35 3.1 5 5.46 6.6 7.38 4.97 17.16 5.73 25.48 7.25q7.41.65 14.84 1.25c4.55.36 9.09.77 13.64 1 4.1.19 8.19.19 12.28.25.73 0 16.46.12 18.29.16l6.25.26c3.74.07 7.49.2 11.19.8 2.46.4 1.48.3 3.65.81q.85.18 1.7.34c3.28.45.07.08 3.1.28.6.08 1.9.2 2.5.36.35.1.67.26 1.01.38l1.2.37q.66.1 1.3.17l-90.02 62.03-.99-.42q-.65-.15-1.3-.28c-.48-.09-.96-.13-1.43-.25q-.5-.16-.97-.37-.57-.23-1.1-.5c-.8-.43-1.5-1.01-2.34-1.36q-.75-.37-1.5-.72c-.6-.27-1.22-.48-1.78-.8-2.33-1.3-3.66-3.8-5.2-5.85-3.08-3.41-6.14-6.82-9.86-9.59a49 49 0 0 0-6.3-4.2c-6.42-3.4-13.37-5.39-20.21-7.7-13.99-2.47-16.7-3.74-31.71-2.78-6.3.4-12.53 1.66-18.78 2.55-1.46.2-17.12 2.62-20.6 3-1 .1-2 .07-2.98.07z" style="fill:#00d9ff;fill-opacity:1;stroke:#00d9ff;stroke-width:7.5;stroke-opacity:1" transform="matrix(.1 0 0 -.1 0 2332)"/><path d="M14616.22 3178.37c-.1 1.06-.56 2.16-.26 3.17.98 3.4 4.84 6.2 7.3 8.06a119 119 0 0 0 7.63 5.23c9.86 6.29 10.95 6.5 21.8 12.01 11.34 4.54 14.83 6.33 26.65 9.46 4.21 1.11 8.53 1.84 12.79 2.76l-63.2 41.88c-2.37-2.12-4.52-4.51-7.1-6.38-8.58-6.21-13-7.3-22.96-11.45-4.9-1.25-9.71-2.8-14.67-3.75a119 119 0 0 0-29.1-2.02 99 99 0 0 0-22.18 3.47c-2.35.68-4.57 1.75-6.85 2.62z" style="fill:#00d9ff;fill-opacity:1;stroke:#00d9ff;stroke-width:7.5;stroke-opacity:1" transform="matrix(.1 0 0 -.1 0 2332)"/><path d="M14481.52 3173.6c-.23 1.08-.69 2.88-.11 3.77s7.44 4.8 7.64 4.9c5.31 2.8 8.23 3.83 13.98 6.19 8.43 4.34 10.01 5.44 19.22 8.95 3.78 1.44 7.62 2.7 11.47 3.93 3.9 1.24 7.85 2.27 11.75 3.47 17.31 5.33 5.06 2.2 22.43 6.17 8.76 2.6 10.44 2.64 18.44 6.78 2.83 1.46 5.36 3.5 8.24 4.87 3.03 1.45 6.31 2.34 9.44 3.59 3.45 1.37 13.86 5.8 17.37 7.3l-69.35 45.66c-13.53-7.82-1.08-.7-15.12-8.54-2.66-1.48-5.16-3.26-7.95-4.49-3.27-1.44-6.8-2.2-10.15-3.47-8.24-3.14-8.66-3.71-16.18-7.88-2.57-1.58-5.02-3.38-7.71-4.75-3.23-1.65-6.66-2.88-10-4.26-3.46-1.44-6.9-2.96-10.43-4.2-3.84-1.36-7.73-2.61-11.67-3.6-11.49-2.9-13.85-2.64-25.6-3.69-3.72-.2-7.43-.5-11.16-.58a236 236 0 0 0-19.55.63c-2.42.15-4.85.19-7.25.5-2.5.33-4.95 1-7.43 1.42-.95.16-1.92.22-2.88.33zM14938.98 3211.9c24.14 7.57 49.4 9.96 74.4 12.86 15.98 1.85 31.94 3.95 47.96 5.36 39.15 3.44 65.15 4.02 104.2 5.57l-67.45 48.45c-43.61-3.1-58.88-4.59-103.65-6.05-18.07-.6-36.16-.55-54.24-1-13.57-.34-27.12-1.13-40.7-1.39-26.16-.48-29.37-.13-51.4.7zM15371.94 3185.26c14.93 2.45 29.98 3.77 45.04 5.18 13.17 1.23 26.33 2.54 39.51 3.59 15.96 1.26 31.96 1.94 47.9 3.32 19.3 1.66 38.54 3.86 57.8 5.8 60.36 4.98 64.96 5.72 125.07 9.26 19.07 1.13 38.15 1.94 57.22 2.97 17.42.95 34.83 1.97 52.24 2.95l-66.96 47.9c-76.53-7.1-153.06-14.76-229.85-18.43-25.37-.71-86.51-2.7-114.3-2.56a975 975 0 0 0-104.48 6z" style="fill:#00d9ff;fill-opacity:1;stroke:#00d9ff;stroke-width:7.5;stroke-opacity:1" transform="matrix(.1 0 0 -.1 0 2332)"/><path d="M15753.73 3182.99c3.02.96 5.99 2.12 9.07 2.87 20.57 4.99 29.09 5.76 51.64 8.4 13.88 1.64 27.75 3.32 41.68 4.51 33.36 2.86 72.68 4.5 105.93 6.17l-64.26 46.32c-61.4-1.56-51.42-1.53-111.68-2.2-15.94-.18-31.88-.08-47.81-.4-11.52-.23-23.03-.99-34.55-1.26-9.34-.21-18.68-.12-28.02-.18l-13.33-.4zM16886.05 3197.18c41.23 5.32 82.91 4.84 124.4 5.2l-76.46 55.43c-10.37-.13-20.73-.36-31.1-.38-35.1-.08-70.21.92-105.21 3.73zM15554.77 609.99c52.8 10.37 106.17 17.33 159.48 24.45 23.35 2.94 12.37 1.61 32.93 4l-90.16 63.62c-19.59-3.2-9.11-1.48-31.43-5.18-53.73-8.76-107.6-16.81-161.69-23z" style="fill:#00d9ff;fill-opacity:1;stroke:#00d9ff;stroke-width:7.5;stroke-opacity:1" transform="matrix(.1 0 0 -.1 0 2332)"/><path d="M15546.43 570.54c30.43-.46 60.85-.68 91.28-1.18 25.56-.36 51.12-.7 76.68-.6 28.35.23 56.7.07 85.06.3 46.44.72 92.86 1.09 139.27-.85 40.74-2.87 81.49-5.7 122.29-7.7 46.43-1.71 92.9-1.84 139.35-2.05 45.74-.39 91.48-.1 137.23-.07 50.63-.22 101.25.32 151.88.2 46.34-.29 92.67-.2 139-.33 43.58-.49 87.14.15 130.71.35 64-.67 127.93 2.6 191.9 4.2 58.3 1.08 116.61.85 174.92 1.16 39.7.17 79.4-.75 119.09-.16 29.17.57 58.4-.74 87.56.4 18.6.73 35.24 2.34 53.85 3.88 59.02 4.67 117.77 11.9 176.81 16.33 39.28 2.77 78.66 3.41 117.98 5.15 20.66.92 35.08 2.04 55.63 3.46 53.06 4.37 106.02 9.77 159 15.06 41.63 4.58 83.2 9.6 125.03 12.17 22.9 1.22 45.84 1.33 68.77 1.47 49.33.6 98.65 1.19 147.98 1.22 46.42-.89 93.06 1.5 139.25-4.02 42.43-17.4 2.33-1.39-82.23 47.3-.58.32 1.72 1.08 1.93.45s-1.17-.68-1.75-1.02c-7.9-4.58-4.17-2.48-13.16-7.28-16.15-7.18-32.39-14.44-49.29-19.7-15.57-3.77-31.53-5.5-47.5-6.53-19.23-.97-38.5-.96-57.77-1-21.89.08-43.78 0-65.67-.07-30.07.17-60.13-.25-90.2-.64-55.55-.63-111.1-.45-166.65-.24-43.57.18-87.13.42-130.7.38-45.21 0-90.42-.24-135.64-.34-28.42.48-56.87-.22-85.29.47-6 .14-32.34 1.43-38.06 1.7-33.82 2.04-67.6 4.3-101.29 7.96l86.9-64.62c34.05-3.89 68.2-6.07 102.43-7.93 12.97-.6 25.61-1.31 38.6-1.46 27.98-.33 56 .82 84 .46 45.52-.1 91.04-.37 136.57-.33 43.22 0 86.44.2 129.66.37 55.77.23 111.55.38 167.32-.24 30.67-.39 61.33-.8 92-.68 21.99-.08 43.97-.2 65.95-.11 19.54.08 39.11-.08 58.6 1.43 16.58 1.53 33.26 3.52 49.14 8.77 17.1 6.27 34 13.3 50.3 21.44 8.15 4.7 17.55 9.2 21.82 18.27 1.26 2.7 4.25 7.06 1.8 8.73-83.88 56.97-64.12 52.59-110.51 60.09-45.46 2.66-91 .45-136.51.81-50.55.08-101.08.78-151.61 1.38-22.94 0-45.89-.14-68.73-2.48-41.1-3.65-81.96-9.4-122.97-13.98-52.94-5.36-105.98-9.79-158.97-14.68-57.71-4.03-115.55-5.29-173.29-8.95-59.01-4.84-117.81-11.92-176.87-16.2-9.62-.58-19.23-1.3-28.86-1.73-37.79-1.7-75.64-.82-113.45-.95-39.49.59-78.97-.23-118.46-.36-57.52-.2-115.01-1.82-172.52-3.12-64.62-1.13-129.23-2.96-193.86-2.5-43.89.2-87.78.85-131.67.36-46.03-.13-92.07-.08-138.1-.34-50.78-.13-101.57.4-152.36.14-45.73 0-91.47.2-137.2.1-46.57.23-93.15.57-139.66 2.9-40.68 2.18-81.29 5.38-121.98 7.25-46.87 1.28-93.76.62-140.64 1.39-28.62.22-57.24.07-85.86.27-25.24.13-50.48-.1-75.72.08-31 .2-62.03.49-92.93 3.09zM18998.54 561.92c53.26 11.32 108.02 13.54 162.25 16.2q20.5.68 40.99 1.33l-84.82 61.19-41.03-1.44c-56.63-2.32-113.41-4.6-169.53-13.08zM20100.29 563.01c44.94 1.69 89.89-1.11 134.77-3.2 32.21-1.57 15.75-1.6 49.38.35l-85.6 61.72c-33.56-.5-17.3-.64-48.82.28a9017 9017 0 0 0-140.14 6.54zM22689.37 562.86c26.01 1.09 52.02 1.98 78.05 2.47q20 .33 40 .28h4.71l-90.94 66.02q-2.32.02-4.66-.07-19.58-.25-39.13-1.25c-26.22-1.13-52.47-2.47-78.72-1.56zM23042.3 961.98c4.08 10.35 10.18 19.77 14.45 30.02 4.67 11.18 7.23 20.42 10.82 32l-96.24 52.76c-1.65-5.26-3.1-10.58-4.96-15.77-5.45-15.23-13.5-29.2-21.4-43.25zM23466.12 1668.5c-2.09 24.82 1.35 49.3 6.25 73.54 2.71 10.68 5.71 21.37 10.89 31.16 5.2 9.83 12.09 18.53 19.1 27.09 10.9 11.91 21.57 24.03 32.76 35.67 11.77 11.14 24.86 20.75 37.53 30.81 4.87 3.02 8.88 7.48 14 10.1.11.08 4.76 2.1 5.53.74.7-1.27.2-2.89.29-4.33-235.5 129.93-96.57 79.49-88.73 45.28 1.6-6.98.85-13.6-.25-20.55-2.68-11.54-8.3-21.94-15.16-31.48-4.37-6.28-9.52-11.97-14.15-18.05a306 306 0 0 0-24.55-26.44c-8.98-7.06-16.85-15.35-24.9-23.4-9.9-9.4-20-18.6-29.81-28.1-12.7-11.5-24.15-24.2-35.89-36.63-9.42-9.1-18.63-18.52-26.84-28.74-7.13-8.98-16.19-16.05-24.94-23.34l-8.04-5.87 94.95-60.04c5.35 4.15 2.62 1.98 8.18 6.5 9.23 7.82 18.65 15.58 26.14 25.16 8.03 9.96 17.04 19.08 25.77 28.41a673 673 0 0 0 35.74 35.9 1964 1964 0 0 1 30.24 28.17 733 733 0 0 0 24.78 23.28c9.02 8.85 17.47 18.2 25.93 27.57 4.78 6.16 10.02 12 14.14 18.65 7.48 11.02 13.6 22.9 17.03 35.83 2.3 10.5 3.34 20.86 1.71 31.58-.32 2.11.49 5.1-1.3 6.28-31.96 21.34-65.54 40.15-98.31 60.23-9.96-3.93-18.15-10.29-26.15-17.34-12.87-10.56-26.59-20.14-38.37-31.94-11.41-11.83-21.95-24.47-32.63-36.96-15.64-20-27.15-37.62-32.27-63.02-4.9-24.68-8.81-49.6-8.56-74.82z" style="fill:#00d9ff;fill-opacity:1;stroke:#00d9ff;stroke-width:7.5;stroke-opacity:1" transform="matrix(.1 0 0 -.1 0 2332)"/><path d="M23481.02 1648.45c3.9 11.86 8.88 23.31 13.76 34.79l-95.96 54.1c-5.3-11.28-10.39-22.64-15.71-33.9z" style="fill:#00d9ff;fill-opacity:1;stroke:#00d9ff;stroke-width:7.5;stroke-opacity:1" transform="matrix(.1 0 0 -.1 0 2332)"/><path d="M23406.5 1806.6c-10.3-14.58-17.21-29.7-22.84-46.53-3.39-10.5-5.79-21.28-8.64-31.94-1.32-6.46-3.12-12.55-6.36-18.3-4.57-7.52-9.73-14.7-14.64-22.03-3.24-4.13-1.56-2.28-5-5.63l96.17-58.46c3.98 4.6 2.06 2.2 5.76 7.22 5.11 7.51 10.31 14.98 15.26 22.59a60 60 0 0 1 7.75 21.04c2.57 10.58 4.74 21.25 7.58 31.76 4.77 15.69 11.15 30.58 21.7 43.35zM23264.58 1856.34c1.67 2.77 3.16 5.66 5.01 8.32 13.84 19.9 32.03 39.26 49.5 56.05l7.42 6.31-94.6 58.57-7.25-7.07a1223 1223 0 0 1-29.75-33.11c-4.33-4.95-16.77-18.94-21.24-24.48-2.22-2.75-4.21-5.68-6.32-8.52z" style="fill:#00d9ff;fill-opacity:1;stroke:#00d9ff;stroke-width:7.5;stroke-opacity:1" transform="matrix(.1 0 0 -.1 0 2332)"/><path d="M23280.9 1983.58c-22.24-17.73-45.1-34.63-68.02-51.47l-7.62-6.05 94.38-59.1 6.96 5.99c22.52 17.92 45.3 35.54 69.46 51.23zM20055.02 5664.24q53.41 9.39 106.66 19.8l-91.15 63.57c-35.51-6.97-71.06-14.23-107.02-18.5z" style="fill:#00d9ff;fill-opacity:1;stroke:#00d9ff;stroke-width:7.5;stroke-opacity:1" transform="matrix(.1 0 0 -.1 0 2332)"/><path d="M19912.1 5836.76c10.17-26.16 21.07-51.98 33.54-77.12 6.86-14.56 13.64-29.15 20.66-43.64 7.69-13.57 14.15-27.78 21.9-41.32 6.6-11.79 15.9-21.62 26-30.45 34.84-24.58 66.75-40.31 109.06-64.08 2.32-1.3 5.07-1.58 7.55-2.54 2.78-1.08 14.96-6.62 17.34-7.7 39.08-13.31 79.1-24.13 118.97-34.98 14.57-4.22 29.12-8.51 43.71-12.66 30.94-8.81 69.51-18.95 99.83-29.15 83.97-28.25 164.7-65.07 245.81-100.41l142.5-64.84-75.43 59.93-146.37 67.69c-68.33 30.15-118.1 53.2-186.05 79.63-55.49 21.57-109.3 36.83-166.17 53.36-14.9 4.34-29.76 8.82-44.64 13.23-40.3 11.68-81.2 22.34-120.17 37.97-5.87 2.59-11.84 4.95-17.64 7.7-2.38 1.12-9.26 4.98-6.99 3.65 166.3-97.3 114.04-69.78 83.73-47.94-11.52 5.7-20.3 15.92-28.2 25.83-7.88 13.39-14.53 27.27-22.26 40.72-7.44 14.35-13.93 29.17-20.87 43.76-12.62 24.81-25 49.8-33.94 76.25zM21607.25 3263.43c47.87-9.51 96.63-11.25 145.27-12.73 26.47-.54 13.76-.32 38.15-.66l-90.16 65.65c-23.96.16-11.46 0-37.51.46-48.64 1.45-97.33 4.15-145 14.72zM23471.18 3251.04c37.62-11.67 76.01-19.69 115-24.96 24.28-3.28 48.78-3.84 73.23-4 18.28 0 36.56.1 54.83.15 15.24 0 30.49.07 45.73 0 13.26-.56 26.72 1.17 39.83-1.16 9.32-2.33 19.12-1.72 28.52-3.31 3.94-.67 7.7-2.1 11.56-3.12 34.86-21.06 4.95-2.94-88.96 50.4-2.32 1.31 6.03-2.02 6.35-7.18-6.01-2.7-13.15-4.63-19.76-6.12-12.7-3.48-21.87-.58-33.92 3.08-15.41 7.19-31.86 12.06-48.2 16.61-32.27 4.9-64.34 10.47-96.82 13.9-46.89 5.03-22.5 1.77-73.11 10.1l87.18-65.5c51.7-8.32 26.81-4.85 74.63-10.66 32.52-4.26 65.13-9.24 97.1-16.53 16.32-5.24 32.44-10.96 48.65-16.43a72.4 72.4 0 0 1 37.49 1.57c10.2 3.23 20.78 6.2 26.21 16.27 15.05 44.76-79.41 72.88-106.55 78.8-13.48 2.6-27.29 3.22-40.86 5.27-13.46.43-26.94.1-40.4.17-15.24 0-30.46 0-45.69-.11-18.2-.1-36.4-.24-54.6-.12-23.97.34-47.96 1.28-71.72 4.7a674 674 0 0 0-114.45 26.81zM18892.77 3174.23a3330 3330 0 0 1 97.02 12.8 2878 2878 0 0 0 84.26 17.07c33.36 6.44 67.42 6.49 101.25 7.24 60.33.9 120.66.28 181 .83 94.15.34 188.28-.7 282.4 2.09 89.26 3.2 178.6 3.99 267.78 9 23.03 1.3 73.37 5 97.42 6.73 58.14 3.95 116.27 6.57 174.16 13.44 38.42 5.06 77.16 6.03 115.84 6.81 57.59-.12 115.11 1.95 172.36 8.64 24.94 2.91 49.76 6.83 74.64 10.25l-85.93 60.79c-25.26-2.95-50.47-6.4-75.79-8.84-58.2-5.61-116.6-6.34-175.02-5.88-39.06-.58-78.13-1.9-116.85-7.48-57.04-7.01-114.4-9.87-171.66-14.63-120.98-9.6-242.15-15.36-363.54-16.2-94.77-1.34-189.55-.56-284.33-.42-60.63.57-121.26.09-181.9-.4-34.68-.42-69.53-.45-103.61-7.83-28.03-5.11-55.67-11.98-83.73-16.87-32.42-4.44-64.79-9.36-97.39-12.3zM10001.5 15173.45c28.25 27.22 57.3 53.64 87.51 78.67 15.18 13.04 31.3 25.27 43.47 41.28 11.48 16.5 17.58 35.73 26.37 53.61 7.08 13.18 17.89 20.15 30.42 27.34 18.79 10.03 34.8 22 46.08 40.21 7.9 14.95 8.04 32.16 13.61 47.9 7.05 14.56 15.58 27.93 21.24 43.24 10.05 26.77 18.02 54.07 25.7 81.58 5.68 28.75 22.23 53.12 38 77.2 32.14 44.91 70.84 84.64 110.17 123.22 26.67 25.1 49.85 53.6 75.38 79.77 19.14 17.9 36.06 37.97 51.27 59.25 12.86 16.77 20.92 36.33 30.61 54.94 7.19 14.51 12.88 29.64 19.53 44.38 6.9 12.83 16.36 24.03 23.37 36.83 10.14 16 16.36 34.16 23.9 51.47 7.86 17.84 13.65 36.5 20.81 54.6 1.1 2.25 2.07 4.58 3.32 6.74 6.66 11.49 1 .3 9.26 11.5 7.1 9.64 11.78 21.05 16.57 31.92 6.45 18 14.67 35.5 23.9 52.26 7.95 14.08 12.83 29.52 19.82 44.05 9.28 20.36 18.38 40.73 31.75 58.78 11.99 17.65 24.9 34.61 36.94 52.24 11.78 15.45 20.96 32.59 31.55 48.81 8.39 16.04 18.16 31.43 30.1 45.04 12.92 16.72 21.38 35.94 30.68 54.7 10.61 21.54 19.75 43.71 31.1 64.88 10.62 17.89 18.43 37.2 28.2 55.5 9.7 18.17 15.7 37.91 21.18 57.67 4.65 20.13 13.84 38.96 23.46 57.14 11.5 23.34 25.43 45.39 40.43 66.6 18.7 24.85 33.6 52.2 51.66 77.46 18.62 24.92 33.04 52.1 44.16 81.05l-97.78 54.4a313 313 0 0 0-43.03-78.47c-17.78-25.46-33.15-52.52-51.83-77.37-15.18-21.68-29.37-44.09-41.3-67.74-10.01-18.86-19.77-38.35-24.58-59.26-5.4-18.93-10.77-38-20.13-55.46-9.8-18.3-17.42-37.68-28-55.6-11.43-21.24-20.69-43.46-31.3-65.1-9.07-17.85-16.82-36.4-29.48-52.2-12.05-14.16-22.13-29.94-30.8-46.38-10.54-16.17-19.69-33.23-31.38-48.64-11.95-17.54-24.85-34.38-36.7-52-13.44-18.75-23.4-39.41-32.87-60.41-7.04-14.31-12.06-29.47-19.66-43.52-9.28-17.1-17.7-34.9-24.1-53.29-4.12-9.46-4.93-12.07-10.05-20.95-5.93-10.27-15.5-17.9-19.5-29.37-7.28-17.94-12.7-36.64-20.48-54.4-7.46-17-13.7-34.76-23.68-50.48-7.07-13.09-17.02-24.35-23.82-37.58-6.49-14.6-12.13-29.5-19.06-43.91-9.35-18.19-17.21-37.25-29.6-53.67a401 401 0 0 0-50.35-57.88c-25.08-26.41-48-54.87-74.34-80.1-39.53-39.53-78.79-79.75-112.03-124.8-16.5-24.88-33.88-50.35-40.03-80.07-7.6-27.22-14.78-54.45-25.26-80.79-5.62-15.3-14.92-28.29-21.6-43.05-5.67-15.03-6.17-31.18-12.39-45.97-10.28-16.68-26.32-26.28-43.22-35.54-14.13-8.5-25.83-18.15-33.78-33-8.4-17.2-14.25-35.7-25.23-51.6-12-15.03-27.62-26.71-41.9-39.5-29.9-25.85-58.98-52.62-88-79.46z" style="fill:#00d9ff;fill-opacity:1;stroke:#00d9ff;stroke-width:7.5;stroke-opacity:1" transform="matrix(.1 0 0 -.1 0 2332)"/><path d="M11120.1 17097.84c-10.28-12.4-20.51-24.8-29.84-37.95a560 560 0 0 0-15.11-22.58c-5.72-8.45-10.22-17.63-14.6-26.83a241 241 0 0 0-14.56-29.17c-5.1-8.34-8.39-17.6-12.46-26.46-3.89-8.12-8.74-15.7-13-23.63-4.9-10.04-10.51-19.7-16.08-29.39-5.4-8.42-10.09-17.26-15.06-25.93-7.47-11.38-15.8-22.16-23.63-33.27-10.81-15.14-22.66-29.48-32.95-44.99-11-17.24-21.48-34.77-33.03-51.65-10.28-15.98-21.32-31.43-31.83-47.25-10.25-15.47-18.38-32.2-26.67-48.76a742 742 0 0 0-17.95-33.4c-8.34-13.93-15.87-28.3-23.5-42.62-7.21-13.73-13.57-27.87-19.6-42.16-4.2-9.79-6.73-20.14-10.62-30.04-4-11.29-10.06-21.61-15.41-32.27-6.71-13.38-15.3-25.63-24.04-37.74-9.05-13.02-20.99-23.55-32.28-34.57a489 489 0 0 0-35.45-34.6c-1.87-1.63-3.79-3.22-5.61-4.9-7.37-6.8-3.5-3.83-10.79-10.28-6.9-6.1-14.28-11.62-21.67-17.12-30.04-24.29-56.94-52.2-84.73-78.99-58.4-55.57-119.4-108.6-183.35-157.72-26.85-20.62-54.4-40.3-81.61-60.44l77.12-49.04c28.44 19.5 57.21 38.54 85.32 58.52 66.95 47.62 130.9 99.38 193.64 152.37 28.8 25.65 56.55 52.65 87.43 75.83a336 336 0 0 1 39.14 32.9 551 551 0 0 1 35.5 35.12c11.8 11.46 24.37 22.34 33.7 36.03 8.95 12.62 17.5 25.52 24.74 39.22 5.75 10.87 12.23 21.4 16.5 33 3.8 9.87 6.58 20.03 10.16 30 5.76 14.03 11.52 28.07 18.67 41.48 7.51 14.24 15.28 28.35 23.77 42.04a546 546 0 0 1 18.2 34.21c7.46 16.37 15.28 32.67 25.36 47.62 10.73 15.64 21.68 31.14 31.56 47.34 11.53 16.94 22.49 34.24 33.51 51.5 10.3 15.33 21.67 29.87 32.82 44.58 8.33 11.22 17.06 22.16 24.68 33.89 5.18 8.63 9.93 17.52 15.29 26.05 5.38 9.84 11.03 19.53 16.09 29.55 4.5 8.1 9.66 15.82 13.65 24.2 3.84 8.57 6.76 17.56 11.63 25.64 5.57 9.69 10.8 19.6 15.06 29.94 4.12 8.63 8.37 17.26 13.84 25.14 5.17 7.45 10.41 14.87 14.74 22.86a258 258 0 0 0 29.26 36.5zM10053.66 15195.84c15.3 14.72 32.98 25.89 51.93 35.24 13.99 6.24 27.96 12.8 42.6 17.43 6.97 1.27 13.66 2.74 19.85 6.3 7.77 5.05 11.78 13.88 15.55 22.03 4 8.73 8.28 17.33 12.48 25.96 4.63 8.64 8.52 17.65 12.87 26.46a342 342 0 0 1 18.99 44.3c4.88 17.28 12.08 33.67 19.45 50a2621 2621 0 0 0 32.11 64.08c9.5 18.13 20.3 35.52 29.32 53.9 6.93 15.81 15.57 30.86 22.08 46.86 5.57 13.7 8.47 23.4 13.2 37.7 10.66 36.39 21.9 72.59 32.07 109.11l-94.06 51.2c-10.1-36.22-20.95-72.17-33.21-107.71-2.45-6.65-4.76-13.36-7.34-19.96-8.37-21.38-19.22-41.6-29.22-62.24-9.37-18.17-20.15-35.57-28.96-54.04-10.85-21.45-22.16-42.66-32.9-64.16-7.7-16.59-15.13-33.3-20.38-50.85a282 282 0 0 0-18.22-42.74 668 668 0 0 1-13.66-26.48c-4-8.75-8.29-17.37-12.44-26.05-2.76-5.88-5.21-12.64-11.73-15.15-6.28-2.06-12.87-3.09-18.98-5.71a615 615 0 0 1-42.22-19.39c-10.6-5.7-21.04-11.5-30.86-18.5-4.96-3.54-11.66-9.08-16.52-12.87q-3.47-2.68-6.96-5.32z" style="fill:#00d9ff;fill-opacity:1;stroke:#00d9ff;stroke-width:7.5;stroke-opacity:1" transform="matrix(.1 0 0 -.1 0 2332)"/><path d="M10184.68 15355.17c15.92 16.34 30.49 34.56 41.98 54.33 2.33 4 4.37 8.18 6.55 12.28l5.08 14.05-96.54 53.44-4.47-12.66c-1.97-3.87-3.78-7.84-5.93-11.63-10.88-19.19-25.08-36.74-41.97-50.93zM11470.77 17535.96c11.92 12.52 26.46 22.12 40.86 31.5 11.2 5.98 21 14.02 30.23 22.67 4.1 4.74 8.2 9.45 12.08 14.36l-96.4 57.47a133 133 0 0 0-10.95-12.85 208 208 0 0 0-29.09-21.44c-14.61-10.14-28.92-20.74-42.16-32.65z" style="fill:#00d9ff;fill-opacity:1;stroke:#00d9ff;stroke-width:7.5;stroke-opacity:1" transform="matrix(.1 0 0 -.1 0 2332)"/><path d="M11487.12 17703.46c-9.48-12.28-19.27-24.27-28.28-36.91-5.96-7.4-10.88-15.58-16.67-23.08-5.85-9.48-13.38-17.77-20.72-26.1-11.17-13.79-21.86-27.97-32.5-42.18-15.07-19.52-30.03-39.1-45.6-58.22l94.8-56.64c15.2 19.48 30.12 39.19 45.93 58.2a3905 3905 0 0 0 33.24 40.91c7.57 8.57 15.27 17.12 21.64 26.64 5.6 7.78 10.7 15.92 16.36 23.66a347 347 0 0 0 28.05 35.93zM13510.78 16093.47c18.34 15.53 39.06 27.98 57.48 43.4 4.69 3.93 9.1 8.18 13.65 12.26a256 256 0 0 1 39.74 46.46c4 6 7.52 12.3 11.27 18.46l-94.13 54.66c-3.6-5.89-6.92-11.95-10.78-17.65-11.09-16.35-24.44-30.92-39.11-44.1-4.48-3.83-8.83-7.81-13.42-11.5-19.1-15.32-40-28.3-59.85-42.59zM12809.97 14923.33c12.46 3.05 26.54 4.34 37.35 11.96 1.95 1.37 3.61 3.13 5.42 4.7 9.34 9.1 12.98 21.27 16.01 33.54 1.98 10.63 6.41 20.49 9.57 30.77 2.83 12.07 1.56 5.94 3.8 18.37l-98.36 52.3c-1.96-11.56-.82-5.92-3.4-16.94-3.37-10.46-8.81-20.2-10.49-31.18-2.26-9.92-3.75-20.2-12-27.18-11.54-7.91-25.76-9.95-39.4-11.48zM11948.76 18260.53c5.9 8.15 12.26 15.98 18.3 24.04 4.75 6.74 10.28 12.86 15.75 19.01 2.62 2.72 5.36 5.34 7.73 8.29.86 1.07 1.61 2.2 2.45 3.29.75.97 1.6 1.85 2.3 2.85.87 1.24 1.6 2.57 2.41 3.85.78 1.38 1.67 2.7 2.33 4.12 5.39 11.65 6.93 25.84 8.8 38.4l-95.65 50.44c-.37-2.8-.64-5.6-1.1-8.38-1.66-9.98-4.38-19.93-10-28.46a152 152 0 0 0-14.3-16.96c-3.58-4.07-7.16-8.16-10.3-12.6-.84-1.2-1.6-2.45-2.42-3.65q-1.4-2.02-2.81-4.01c-5.69-7.78-11.35-15.77-19.14-21.62zM12176.84 18862.22c18.97 5.86 38.5 10.23 57.07 17.34 3.3 1.26 6.5 2.81 9.75 4.22q4.04 2 8.06 4.03c2.16 1.1 4.33 2.17 6.44 3.36 4.85 2.72 9.07 5.95 14.36 7.78.78-.15 1.56-.33 2.35-.44 1.96-.3 3.63-.15 5.42-1.2.82-.5 2.97-2.39 2.13-1.93-102.33 56.73-126.92 67.65-91.04 51.54 5.13-4.22 9.62-9.1 14.15-13.93 33-18.55 65.6-37.8 98.98-55.66.89-.47 1.95.65 2.75 1.25 3.52 2.67 6.01 7.05 7 11.3.4 1.7.48 3.46.72 5.2q.11 3.5.21 7l-99 51.08-.46-6.03c-.12-1.3-.47-4.32-.27-4.41.26-.12.27.52.35.8.15.55.39 1.11.33 1.68-.08.5-1.08 1.6-.65 1.36 31.83-17.86 63.37-36.22 95.06-54.33-4.67 1.39-6.14 3.4-9.52 6.7-7.3 7.11 1.42-2.2-5.7 5.6-22.98 35.3-3.24 6.13-101.92 59.62-1.07.58-2.45-.05-3.67-.15-3.9-.34-7.65-1.13-11.09-3.07-8.93-5.32-17.08-11.97-26.79-15.99-18.18-7.7-37.45-14.07-57.09-16.8-2.9-.4-5.85-.4-8.77-.6zM13135.4 20268.54c9.34 7.6 19.7 13.78 30.13 19.73 4.6 2.9 8.89 6.38 11.8 11.06 1.28 2.06 1.52 2.95 2.37 5.15l-99.37 52.7c.16-.13.43-.2.5-.4.22-.79-.6-2.04-.92-2.5-1.79-2.65-4.42-4.57-6.92-6.48a218 218 0 0 0-15.69-10.4c-5.8-3.4-6.48-3.59-12.3-6.37l-3.78-1.8zM13399.27 20681.57c1.11 5.52 4.13 10.3 6.73 15.2 2.62 4.94 2.43 4.53 5.18 9.54a812 812 0 0 0 18.93 30.61c2.5 4.14 5.27 8.1 7.9 12.14 2.49 3.82 4.75 7.8 7.03 11.75 4.06 7.48 8.7 14.65 12.73 22.15.51 1.08 1.06 2.14 1.54 3.24.28.63 2.44 6.19 2.72 6.9 1.25 3.04 2.48 6.05 3.56 9.16 1.85 5.66 2.81 11.55 3.83 17.4l-98.65 51.3c0-.78.1-1.55.08-2.33-.2-4.54-1.62-8.85-2.58-13.25-1.4-6.2-3.82-12.06-6.41-17.85a223 223 0 0 0-11.48-21.91c-2.35-3.84-4.79-7.64-7.06-11.52-.75-1.28-1.42-2.62-2.16-3.9q-1.27-2.16-2.56-4.3l-2.55-4.49c-.99-1.82-4.44-8.23-5.43-9.9-4.22-7.1-9.03-13.84-13.38-20.87-5.06-8.13-9.9-16.4-15.22-24.37zM5626.2 2815.54c5.3-.9 8.11-1.7 13.83-1.04 15.06 1.73 30.98 11 44.15 18.1 13.42 8.93 25.58 19.9 32.19 34.83 2.63 7.6.92 15.26-.65 22.87-2.13 8.04-.2 15.57 2.54 23.17 6.77 14.98 15.12 29.23 23.33 43.46 6.2 9.93 10.76 20.87 17.66 30.37 3.4 4.69 5.02 6.03 9.04 10.12 8.38 7.16 16.03 15.1 24.33 22.33q2.31 1.88 4.64 3.72c.7.55 9.72 7.33 10.3 7.82 5.25 4.37 10.02 9.35 15.02 13.98 5.17 5.24 10.9 10.2 14.76 16.57 2.5 4.1 2.72 5.57 4.24 10.06l.96 4.92-99.33 52.03.03-3.3c-.25-1.14-.37-2.32-.75-3.43-2.58-7.51-9.68-12.64-14.75-18.34-2.1-2-7.25-6.98-9.41-8.88-6.53-5.77-13.86-10.51-20.5-16.14-8.55-7.43-16.5-15.53-24.52-23.52-4.5-4.95-6.2-6.49-10-12.09-6.64-9.82-11.14-20.9-17.24-31.04-8.58-14.7-17.67-29.12-25.55-44.2-3.65-8.95-7.04-18.61-5.63-28.4.85-5.94 2.52-11.7 3.34-17.64-3.47-13.14-14.95-22.01-25.8-29.14-12.88-6.54-26.44-13.77-41.42-11.86-5.47.7-8.1 2.2-12.92 4.3zM6366.31 4043.77c23.34 11.72 46.76 23.45 70.56 34.24 15.27 5.68 25.3 16.67 34.4 29.68 7.04 9.87 10.45 21.47 15.56 32.28 5.23 12.15 12.22 23.37 18.3 35.08 8.75 17.95 15.4 36.78 22.21 55.52 6.5 18.22 12.67 36.55 19.73 54.55a564 564 0 0 0 21.91 52.16 252 252 0 0 0 25.82 39.05c7 8.2 12.52 17.43 18.98 26.04a4783 4783 0 0 1 22.17 31.49c6.87 12.18 15.5 23.1 23.61 34.43a274 274 0 0 1 18.33 30.29c25.97 43.63 24.58 18.61-91.54 63.8-3 1.17-2.87-5.76-4.3-8.63-12.98-21.97-25.22-44.27-36.02-67.38-8.41-17.14-14.15-35.4-21.99-52.78-4.62-11.97-12.56-22-19.6-32.56-6.8-11.85-15.46-22.37-23.7-33.2-11.04-16.7-22.72-32.97-33.99-49.52-14.6-22.04-27.88-44.92-42.16-67.18-13.05-17.81-29.54-32.84-45.93-47.53l-11.07-10.55c-12.8-12.2-9.18-8.51-21.65-21.4-8.83-9.13-16.86-18.74-26.69-26.8l95.13-58.96c19.78 19.49 37.4 41.23 58.9 59.02 17.16 15.37 34.83 30.84 47.92 49.97 13.72 22.4 26.6 45.34 41.56 66.94 11.44 16.25 23.32 32.17 34.55 48.57 8.46 10.97 16.91 21.96 24.15 33.8 7.33 11.11 15.67 21.7 20.4 34.3 7.62 17.46 12.94 35.85 21.46 52.94a499 499 0 0 0 35.79 66.74c1.75 3.11 8.04 7.1 5.25 9.33-97.1 77.32-77.5 91.59-104.13 46.96-5.35-9.93-10.92-19.82-17.4-29.07-8.1-11.38-16.7-22.37-23.78-34.47-7.29-10.4-14.4-20.92-22-31.09-6.49-8.5-12.03-17.65-18.77-25.97-9.99-13.02-19.06-26.76-26.6-41.36-8.43-17.2-16-34.76-22.19-52.92a1100 1100 0 0 1-20.05-54.75c-6.63-18.27-12.78-36.75-21.57-54.14-6.26-11.77-13.77-22.89-19.03-35.18-4.89-10.24-7.74-21.37-14.28-30.82-8.48-11.97-17.48-19.31-31.11-24.97-23.57-11.86-47.15-23.64-71.06-34.8zM6740.66 4585.16c6.75 22.61 16.9 43.81 28.96 64 6.25 10.22 11.92 20.74 17.98 31.07 6.13 9.22 9.8 19.4 13.18 29.85 2.28 9.43 7.4 17.44 11.73 25.94a2523 2523 0 0 0 23.28 37.84 414 414 0 0 1 26.06 43.77c9.27 18.18 19 36.1 28.92 53.94 7.54 13.41 15.3 26.74 23.2 39.96 7.53 12.4 14.16 25.32 21.8 37.66a1994 1994 0 0 0 24.33 37.53c8.88 13.86 17.88 27.67 26.36 41.78 11.8 19.93 24.52 39.27 37.04 58.75 11.27 17.47 22.62 34.87 33.41 52.64 8.2 14.38 18.21 27.6 27.88 41 8.51 11.76 18.34 22.45 27.4 33.78 6.67 9.45 13.56 18.74 19.87 28.46 8.13 12.47 15.05 25.66 22.6 38.47 5.16 9.43 10.06 19.18 13.63 29.35-112.31 59.42-84.54 79.26-123.18 17.9-10.79-16.16-21.2-32.48-29.96-49.83-10.17-19.65-18.54-40.14-27.24-60.45-5.95-13.82-14.35-26.42-22.33-39.12-8.26-11.1-15.66-22.98-25.48-32.8-2.92-3.83-4.44-5.18-8.62-3.24l92.41-64.78c4.76 2.4 9.1 5.06 12.31 9.49 9.76 10.81 17.74 22.99 26.15 34.85 8.6 13.1 17.42 26.24 23.17 40.9 8.19 20.25 16.63 40.44 26.81 59.78 8.57 17.08 19.08 32.9 29.56 48.85 4.8 7.67 9.47 15.44 14.64 22.87 27.67 39.75 28.49 1.76-88.24 68.37 1.71-2.9-9.1-22.15-10.84-25.95-7.36-12.7-14.17-25.74-22.5-37.86-6.22-9.37-12.82-18.45-19.35-27.62-9.03-11.54-18.78-22.5-27.38-34.39-9.77-13.71-20.03-27.18-28.37-41.82a1127 1127 0 0 0-32.74-52.58c-12.57-19.53-25.2-39.03-37.4-58.8-8.7-13.86-17.65-27.56-26.56-41.28a2111 2111 0 0 1-24.36-37.92c-7.56-12.42-14.74-25.08-22.02-37.67-7.99-13.32-15.5-26.97-23.12-40.5a5406 5406 0 0 1-28.93-54.21c-7.74-14.83-16.7-28.97-25.97-42.88a2153 2153 0 0 0-24.03-38.36c-4.8-9-10-17.7-12.61-27.7-2.98-9.71-6.34-19.07-11.96-27.63-6.04-10.36-11.73-20.92-17.55-31.4a483 483 0 0 1-30.31-66.07zM7335.81 5573.88c17.65 15.24 34.7 31.1 50.42 48.32 10.3 10.51 19.15 21.79 26.2 34.69 4.84 10.11 9.24 20.45 12.1 31.3 1.84 12.04 3.07 24.1 5.78 36 3.2 16.92 9.08 32.86 15.9 48.6 10.81 23.19 25 44.58 38.49 66.27 8.87 14 16.74 28.57 24.73 43.08a2383 2383 0 0 0 24.51 53.96c6.4 13.28 14.06 25.88 22.03 38.27 7.9 10.5 14.65 21.75 21.84 32.73 9.98 14.92 20.09 29.72 29.42 45.06 11.62 17.41 22.72 35.16 34.2 52.67 11.52 16.85 21.44 34.73 31.04 52.72 8.37 16.12 16 32.61 24.7 48.56 3.47 6.84 7.6 13.32 11.12 20.14 2.11 4.09 3.56 8.46 6.84 11.76.2-.55.6-1.06.62-1.65 1.25-35.48-62.98 32.8-94.24 49.62-1.23.67 1.23-2.53 1.71-3.85 1.11-3.06 1.26-4.77 1.8-7.95 1.01-7.92-2-14.79-5.85-21.45-5.32-8.47-12.05-15.94-19.33-22.76-10.26-10.16-22.07-18.26-34.4-25.66-12.52-6.63-25.74-11.82-37.85-19.23-17.42-9.87-31.75-24.06-46.08-37.85-14.17-13.25-24.35-29.25-31.57-47.1-4.02-11.9-6.22-24.26-8.88-36.5a178 178 0 0 1-4.04-29.21q-.86-16 .64-31.93c1.13-9.56 4-18.77 5.6-28.25 1.35-7.4-3.47-12.66-8.33-17.55-.88-.58-1.6-1.61-2.66-1.75-.61-.07-1.93 1.53-1.38 1.24 32.08-16.91 63.41-35.3 96.04-51.13 1.47-.72-.67 3.2-.64 4.83.08 4.06 1.74 8.88 2.79 12.65 6.27 17.26 15.9 33.01 24.5 49.17l3.24 6.69-97.73 55.3-2.86-6.35c-8.6-16.94-18.48-33.25-25.57-50.91-.7-2.1-7.07-21.74-5.37-22.94 63.82-44.92 72.2-86.7 105.87-55.43 6.83 7.45 12.87 15.88 13.25 26.36a151 151 0 0 1-6.04 28.08c-1.16 10.08-1.73 20.1-1.14 30.25.3 9.3.99 18.59 2.96 27.7 2.48 11.72 4.69 23.5 7.9 35.04a109 109 0 0 0 28.4 43.23c13.98 13.22 28.3 26.26 45.54 35.14 12.35 6.92 25.35 12.58 37.64 19.6 12.83 8.03 25.01 16.9 35.86 27.51 8 7.64 15.38 15.96 21.21 25.4 5.07 8.69 8.9 17.53 9.3 27.78-.13 1.84-.96 14.38-2.05 15.12-51.05 34.93-72.25 88.43-105.8 56.57-7.24-10.55-11.22-23.12-18.18-33.9-8.85-15.94-16.19-32.65-24.66-48.8-9.3-17.75-19.17-35.25-30.4-51.87-11.55-17.62-22.64-35.53-34.56-52.9-9.26-15.22-19.4-29.82-29.37-44.57-7.36-10.93-14.43-22.06-22.15-32.74a364 364 0 0 1-22.26-39.89c-8.22-17.67-16.33-35.4-24.59-53.06-7.88-14.36-15.26-28.98-23.79-42.98-13.6-22.18-27.66-44.19-39.31-67.48-7.52-16.17-14.07-32.48-17.38-50.1a213 213 0 0 1-6.19-35.85c-2.13-10.05-6.17-19.5-10.35-28.85-6.63-12.1-15.24-22.5-24.56-32.64-15.13-17.11-31.65-32.92-49.82-46.8zM6683.94 3175.45c17.69 12.27 36.83 22.17 55.37 33.03 16.29 9.54 21.62 13.34 38.06 24.1l-92.2 59.34c-31.47-19.31-63.76-37.15-95.61-55.82zM7303.17 3266.62q-25.08.83-50.15.83l89.51-65.13c17-.22 33.98-.63 50.93-2.03zM2500.2 2328.4c14.9 12.5 31.55 22.77 47.75 33.48 6.6 5.09 13.9 9.33 20 15.05 1.76 1.64 3.8 4.03 5.42 5.85 4.44 5.4 9.14 10.57 13.99 15.6 5.73 6.88 9.24 15.15 12.82 23.26 4.7 11.11 8.82 22.44 13.4 33.6 3.77 9.5 7.4 19.07 11.22 28.55a157 157 0 0 0 9.94 19.86 409 409 0 0 0 17.28 25.66c7.38 10.09 16.17 19.09 23.26 29.39 1.95 2.83 3.73 5.77 5.6 8.66 9.88 15.77 20.39 31.15 30.82 46.56q13.85 20.3 26.68 41.27c8.03 13.61 16.87 26.73 24.83 40.38 7.84 14.05 15.28 28.3 22.44 42.7 7.89 15.51 16.04 30.88 23.73 46.48a380 380 0 0 0 28.86 49.87 1312 1312 0 0 1 33.08 46.44c9.8 15.28 19.12 30.86 28.5 46.4 9.5 15.86 18.37 32.08 27.7 48.03 11.44 20.1 21.42 41 30.56 62.22 8.07 19.3 15.34 38.92 23.41 58.23 7.82 18.62 15.7 37.2 23.17 55.97 8.11 20.13 15.77 40.42 23.84 60.57a862 862 0 0 0 35.36 81.5c8.28 15.99 16.09 32.07 27.23 46.28 7.04 7.66 14.99 14.77 24.04 19.98 2.6 1.04 5.45 3 8.44 2.28.64-.15 2.33-1.24 1.75-.93-97.1 52.57-132.9 50.71-93.9 52.27.52-.67 1.18-1.27 1.57-2.04 2.45-4.85 2.2-12.62 2.19-17.95a57 57 0 0 0-5.27-21.6c-3.64-7.55-7.89-11.64-14.08-17.07-14.56-13.2-32.89-20.74-50.86-28.02-15.75-6.16-31.86-11.62-46.9-19.46-5.68-2.97-11.14-6.36-16.68-9.57-20.65-11.96-14.02-8.06-34.9-21.2-34.8-23.38-69.9-46.33-104.17-70.5-11.15-7.87-22.45-15.54-33.27-23.87-13.68-10.53-26.78-21.78-40.18-32.66-48.54-40.15-91.34-86.42-134.47-132.12l80.51-48.98c14.26 15.34 28.04 31.14 42.77 46.02 41.94 42.34 48.69 46.02 93.7 82.98 14.24 10.17 28.36 20.53 42.74 30.5 14.28 9.9 49.6 33 65.04 42.95 8.98 5.8 43.13 27.55 53.15 33.62 7.94 4.8 16.03 9.35 24.04 14.03 17.08 10.13 34.05 20.36 51.98 28.94 11.24 5.39 19.02 8.36 30.63 12.92q7.94 3.09 15.88 6.13c19.79 7.6 40.02 14.67 55.93 29.2 3.85 3.33 7.72 6.67 10.8 10.75 2.37 3.13 3.76 6.93 5.92 10.18a78 78 0 0 1 7.43 25.44c.68 8.53.05 17.09-.68 25.6-.09 1.61 1.14 4.02-.25 4.84-62.2 36.8-72.84 73.71-113.23 47.84a137 137 0 0 1-25.18-23.6c-3.44-4.46-6.05-7.53-8.9-12.41-6.92-11.8-10.78-25.23-17.2-37.28-12.4-27.16-25.82-53.85-37.6-81.28-7.26-20.38-14.9-40.63-23.5-60.48a8085 8085 0 0 0-23-55.82c-8.32-19.25-15.41-38.95-23.11-58.45a412 412 0 0 0-14.9-32.83c-5.39-10.42-5.4-9.86-11-19.64q-2.3-4.06-4.56-8.16c-9.27-15.92-18.22-32.01-27.73-47.79-9.36-15.36-18.38-30.93-28.03-46.1-10.53-15.82-22.04-30.87-33.22-46.23-11.1-16.28-20.34-33.67-29.2-51.27a2995 2995 0 0 1-24.52-46.28 569 569 0 0 0-22.17-41.95c-7.86-13.56-16.27-26.82-24.28-40.3a2248 2248 0 0 0-26.59-40.89c-10.3-15.47-20.23-31.19-30.36-46.77-9.21-12.9-19.63-24.77-29.63-37.05a365 365 0 0 1-18.22-26.24 132 132 0 0 1-11.04-21.52c-3.64-9.55-6.75-19.3-10.52-28.8-4.4-11.05-8.86-22.05-13.57-32.96-3.24-6.9-6.16-14.1-11.3-19.86a377 377 0 0 1-14.2-15.92c-6.58-7.48-14.5-13.55-22.48-19.48-16.18-11.45-32.97-21.97-49.06-33.55zM2068.67 1618.26c4.05 4.8 9.5 8.81 13.39 13.7 2.43 3.04 4.35 6.47 6.71 9.57 7.05 9.25 11.53 13.84 19.43 22.63 14.41 16.05 30.74 30.42 43.72 47.7 1.17 1.87 6.14 9.61 7.03 11.49 2.63 5.58 4.7 11.4 7.3 17 9.56 20.68 20.4 40.82 30.68 61.16 8.25 16.05 15.66 32.5 23.27 48.84 3.65 7.84 7.71 15.48 11.01 23.47 1.9 4.63 3.45 9.4 5.18 14.09 8.37 23.78 17.16 47.43 23.26 71.92 2.27 10.16 1.34 5.17 2.83 14.95l-98.6 51.62c-.6-9.13-.1-4.38-1.6-14.23-4.8-24.3-12.29-48.02-20.99-71.18-12.39-28.9-23.8-58.21-37-86.76-9.95-20.34-19.81-40.84-31.65-60.19-3.09-5.05-6.62-9.82-9.9-14.76-3.4-5.15-3.7-5.74-6.68-10.74-11.99-17.23-26.47-32.58-40.61-48.04-3.73-3.92-7.49-7.82-11.18-11.77-10.05-10.74-19.48-22.2-31.03-31.41zM1603.98 798.24c3.24 24.43 4.92 48.87 4.04 73.5l-99.04 49.75a255 255 0 0 0-4-70.84zM1580.1 897.06l-3.08 8-101.03 47.33 2.41-8.02z" style="fill:#00d9ff;fill-opacity:1;stroke:#00d9ff;stroke-width:7.5;stroke-opacity:1" transform="matrix(.1 0 0 -.1 0 2332)"/><path d="M1590.87 886.28c-10.25 17.2-19.72 34.8-29.07 52.5a3834 3834 0 0 0-19.2 36.24l-100.7 45.33c6.31-12.02 12.56-24.08 18.9-36.1 9.06-17.44 17.6-35.13 27.75-52zM1839.8 1218.39c1.06 18.5 2.94 37.4 9.6 54.88 1.43 3.78 3.27 7.4 4.91 11.1 12.79 23.34 30.83 42.97 50.17 61 13.7 12.36 28.4 23.55 42.63 35.3 8.22 6.32 15.18 13.96 22.42 21.32a96 96 0 0 1 11.82 14.6l-97.2 56.76a80 80 0 0 0-10.4-12.8 337 337 0 0 0-21.63-20.6c-13.96-12.17-28.38-23.8-41.84-36.53-19.99-19.32-38.48-40.3-52.27-64.6-1.96-4.06-4.18-8-5.87-12.17-7.33-18.1-8.64-37.84-11.88-56.88zM2207.78 557c31.84 9.37 63.85 18.19 95.44 28.37 19.5 6.14 39.15 11.71 58.73 17.59l-90.88 62.09c-19.64-5.8-39.33-11.44-58.76-17.9-31.89-10.44-64.06-20.2-97.05-26.55zM3923.6 579.08c40.13-.09 80.27-.53 120.4-1.08 26.93-1.33 53.74.67 80.5 3.36l-90.17 64.1a597 597 0 0 0-78.3-3.43c-40.88.17-81.8.26-122.6 3.18z" style="fill:#00d9ff;fill-opacity:1;stroke:#00d9ff;stroke-width:7.5;stroke-opacity:1" transform="matrix(.1 0 0 -.1 0 2332)"/><path d="M3845.32 579.58c57.35 2.47 114.79 1.73 172.17 1.36 35.5.9 18.2.11 51.9 2.28l-87.92 63.01c-32.84-2.17-15.91-1.4-50.8-2.2-58.64-.4-117.32-1.04-175.92 1.35zM5598.18 560.66c63.2 3.82 126.56 3.72 189.84 5.26 97.14 2.87 194.2 7.83 291.33 11.44 92.37 7.02 44.57 2.56 143.35 13.74l-78.8 56.04c-100.95-9.2-52-5.86-146.83-10.4-37.1-.94-69.78-1.68-106.72-3-61.98-2.2-123.87-6.52-185.9-7.34-65.8-.77-131.6-.22-197.4-.34zM7437.45 539.54c58.34 8.79 116.99 15 175.76 19.92 57.13 3.93 114.33 7.4 171.38 12.6 24.97 2.28 49.9 4.95 74.87 7.4 44.06 6.4 22.44 2.55 64.88 11.45l-87.48 60.87c-41.6-8.5-20.37-4.8-63.69-11.02a3933 3933 0 0 0-245.18-20.43c-60.63-4.77-121.1-11.06-181.68-16.29zM9658.26 551.26c54.4 2.66 108.9 3.57 163.36 4.18 45.31.54 90.63.17 135.95-.12 23.6-1.06 47.09.88 70.64 2.04 40.35 1.6 80.74 1.9 121.12 2.12 57.18.14 114.37.63 171.55.78 62.42-.29 124.83-.23 187.25-.38 57.43.37 114.84-1.31 172.26-2.34 64.1-.58 128.2-1.26 192.3-1.59 68.18.76 136.38-.38 204.55.68 56.38 1.89 112.77 1.05 169.16.29 43.93-1.11 87.8-3.82 131.75-4.55 32.65-.54 66.36-.08 99 .2l55.8 2.39-85.08 61.34-56.2-1.69c-17.12 0-34.25-.2-51.38 0-60.82.73-121.49 5.07-182.28 6.68-56.2.58-112.41 1.13-168.6-1.05-68.33-.93-136.68-.62-205.02-.11-63.93 0-127.86 0-191.78 1.43-57.57 1.14-115.12 3.18-172.7 2.4-62.09-.14-124.17-.07-186.25-.34-57.8.16-115.6.75-173.4.48-40.7-.25-81.41-.45-122.1-1.9-23.53-.8-47.05-1.73-70.6-1.52-44.6-.43-89.2-1.22-133.8-1.57-55.27-.66-110.52-1.83-165.79-2.26zM12465.53 557.97c22 5.3 44.31 9.36 66.84 11.6 16.06 2.8 32.3 4.07 48.57 4.73 13.62-1 27.2-2.49 40.84-3.13 17.65-1.08 35.29-2.5 52.96-3.48 22.49-1.03 45.01-.6 67.52-.58 30.26-.24 60.52.08 90.78.16 53.99.3 107.98.56 161.98.65 92.17.56 184.34 1.07 276.51.69 70.67-.63 141.35-.7 212.03-.66 52.71.07 105.42-.57 158.14-.45 64.15 1.03 128.3-.18 192.45.87 60.29 1.59 120.6 2.4 180.9 2.83 76.53.68 153.05 1.39 229.57 1.18 92.67-.41 185.34.43 278.01.26 67.25-.08 134.49.1 201.72-1.51 17.26-.42 34.52-1.34 51.78-1.44 23.9-.14 47.78.48 71.68.72 228.55.32 455.91 26.71 682.96 49.94 192.3 22 384.5 44.82 576.77 67.16l-73.14 51.89a167871 167871 0 0 1-579.29-65.26c-229.3-23.55-459.22-46.67-690.06-43.55-109.32 1.99-218.62 5.42-327.97 4.2-92.93-.14-185.86.73-278.8.3-77.24-.24-154.47.65-231.71.25-60.17-.78-120.32-2.03-180.48-3.2-64.41-.92-128.84-.66-193.26-.08-52.3.12-104.62-.5-156.93-.45-70.07.08-140.14 0-210.2-.66-92.81-.39-185.61.15-278.42.69-54.57.09-109.15.34-163.72.61-30.4.08-60.79.32-91.18.18-22.64.15-45.28.35-67.89 1.59-17.78 1-35.51 2.73-53.3 3.75-13.77.96-27.55 2.55-41.38 1.99a580 580 0 0 1-48.82-5.45c-22.74-3.13-45.2-7.97-67.68-12.55zM8082.59 11907.66c3.1 2.35 6.12 4.8 9.29 7.07 3.48 2.49 7.17 4.7 10.65 7.18 11.92 8.5 22.92 18.13 34.94 26.5 4.12 2.43 8.97 4.32 13.45 1.34.96-.64 3.33-3.15 2.32-2.59-85.43 47.38-124.5 74.36-91.93 51.95 35.17-41.24 73.44-60.1 119.82-62.42 1.3-.39 2.79-.4 3.91-1.16 1.09-.74 3.55-3.75 2.41-3.1-31.43 17.64-62.3 36.27-93.53 54.26-.88.51 1.75-1.07 2.46-1.8 1.77-1.78 2.07-3.2 3-5.49 2.29 2.02-.45-4.51.6-3.78.64.45.22 2.48.91 2.14 33.26-16 65.44-34.21 98.75-50.12.85-.4.14 1.89.37 2.8.34 1.41.88 2.77 1.32 4.15 2.96 9.53 5.88 19.08 11.78 27.22 6.33 6.27 13.63 11.37 20.68 16.76 10.04 5.75 17.5 14.58 24.96 23.19 7.7 10.09 14.62 20.81 20.15 32.24 6.2 14.53 9.18 30.2 11.1 45.8 1.64 20.99 1.55 42.07.41 63.08-2.21 22.9-2.04 45.7-.2 68.6 4.22 35.74 25.67 64.47 45.86 93 31.05 43.29 14.88 20.79 48.52 67.5l-91.71 54.32c-34.7-46.08-17.8-24-50.63-66.32-7.1-9.5-24.56-32.4-31.41-43.3-10.2-16.24-16.06-35.03-19.48-53.74-2.18-23.32-3.46-46.56-.73-69.92 1.17-20.38 1.71-40.77-.08-61.15-1.43-14.47-3.76-28.93-9.35-42.45-5.03-10.56-11.74-20.22-18.8-29.52-7.06-8.05-14.46-15.57-23.73-21.13-8.1-5.88-16.18-12.05-22.63-19.77-6.28-9.14-10.1-19.36-13.33-29.94-.17-.47-3.9-10.34-3.64-10.52 32.12-21.35 97.52-98.15 101.99-47.98-5.93 46.98-64.73 70.24-110.4 73.29-4.39.7-8.68 1.3-12.66 3.42-1.06.57-4.04 2.62-3 2.01 92.08-54.13 122.57-75.96 90.68-53.23-25.17 33.07-4.7 6.9-101.51 60.4-1.14.63-8.69-1.22-9.35-1.44-5.1-1.77-7.35-3.63-12-6.58-17.9-13.69-34.96-28.55-54.58-39.88z" style="fill:#00d9ff;fill-opacity:1;stroke:#00d9ff;stroke-width:7.5;stroke-opacity:1" transform="matrix(.1 0 0 -.1 0 2332)"/><path d="M8297.24 12106c12.22 28.76 28.42 55.67 43.64 82.92a292 292 0 0 1 21.7 45.52l-97.8 54.18a240 240 0 0 0-20.27-44.34c-15-27.8-30.74-55.2-45.18-83.28zM8839.67 13070.1c11.04 30.27 20.2 61.16 30.02 91.83 6.43 20.26 12.16 40.77 20.76 60.24 9.51 17.14 18.22 34.7 26.92 52.27 10.41 22.74 23.74 43.93 36.2 65.57 18.87 33.33 36.6 67.29 54.76 101.01 19.64 38.27 41.06 75.48 63.46 112.17 19.37 31.01 41.94 59.77 65.24 87.87 17.7 21.13 36.95 40.94 57.95 58.79 18.32 13.48 37.97 24.96 56.73 37.84 6.05 3.3 17.77 16.07 24.23 17.21.86.15 1.66-.54 2.48-.8-155.94 84.8-83.79 80.84-97.08 36.6-2.52-8.4-6.46-16.47-10.03-24.46-6.74-14.87-13.5-29.74-19.68-44.86-4.97-12.08-9.73-24.25-15.87-35.78-5.97-10.35-12.21-20.56-19.24-30.22-10.54-14.84-20.94-29.71-32.9-43.45-13.07-14.5-26.65-28.5-41.24-41.47-15.18-13.98-31.36-26.8-47.69-39.4-19.92-15.75-40.56-30.5-60.45-46.3a1501 1501 0 0 1-83.77-71.4c-18.7-16.64-33.8-36.66-50.65-55.03-17.9-19.51-25.22-25.46-45.98-44.84-69.23-65.42-148.37-118.67-227.78-170.71l87.77-56.23c79.48 53.38 159.86 106.4 231.5 170.22 20.55 17.85 30.98 25.98 48.94 44.57 17.04 17.65 31.75 37.59 50.28 53.83a1172 1172 0 0 0 83.66 70.38c20.24 15.42 41.02 30.1 60.94 45.95 16.56 12.8 32.97 25.8 48.44 39.92 14.77 13.39 28.3 28 41.6 42.83 12.24 13.97 23.26 28.84 33.99 43.99 7.3 10.12 14.22 20.54 20.27 31.46 6.22 11.95 11.04 24.5 16.11 36.97 5.96 15.05 12.86 29.74 19.37 44.55 5.14 11.56 10.65 23.27 13.75 35.58.78 3.1 4.4 7.5 1.84 9.39-31.3 23.14-65.86 41.52-98.8 62.28-10.41-5.52-19.16-13.46-28.52-20.53-18.8-13.28-38.58-25.11-56.82-39.15-21.19-18.49-40.58-38.94-58.37-60.72-23.62-28.53-45.86-58.17-65.66-89.5-10.65-17.72-21.54-35.26-31.53-53.37-19.9-36.05-.28-1.1-20.44-38.66-3.74-6.96-7.67-13.83-11.5-20.74-18.36-33.5-36.41-67.17-55.47-100.28-12.62-21.81-26.9-42.73-37.3-65.77-8.7-17.74-17.53-35.4-27.25-52.61-8.86-19.92-14.53-40.9-20.48-61.83-9.41-30.53-18.02-61.38-30.76-90.74z" style="fill:#00d9ff;fill-opacity:1;stroke:#00d9ff;stroke-width:7.5;stroke-opacity:1" transform="matrix(.1 0 0 -.1 0 2332)"/><path d="M8888.22 13088.33c20.47 18.46 37.78 39.85 53.32 62.52 10.1 15.23 19.56 31.1 26.48 48.08 3.5 8.6 5.6 16 8.34 24.86 6.85 21.56 11.24 43.75 17.81 65.38 5.59 19.89 14.75 38.14 24.83 56.05 11.27 20.76 21.46 42.07 33.56 62.36 14.02 23.64 27.3 47.68 41.77 71.07l9.3 14.85-95.72 55.67-9.14-14.88a2299 2299 0 0 1-43.01-70.74c-11.79-20.52-22.05-41.84-33.44-62.58-10.7-18.53-20.47-37.35-26.14-58.12-6.77-21.63-11.04-43.84-17.58-65.54-2.33-7.73-4.67-16.1-7.65-23.61-6.52-16.42-15.45-31.86-25.25-46.5-15.09-21.8-31.8-42.74-52.67-59.34zM13562.09 11666.74c-40.1 34.46-85.23 55.3-133.1 82.02-5.82 3.25-12.24 5.26-18.4 7.79-10.87 4.45-24.32 9.56-35.34 13.8-12.48 4.8-25.44 8.62-37.52 14.47-2.64 1.28-10.24 5.74-7.7 4.28 93.42-53.52 119.41-70.48 86.33-49.02-2.13 2.57-3.47 3.39-3.92 6.82-.76 5.84 6.6 15.74 9.37 20.25 11.5 15.53 22.8 31 32.3 47.87 13.18 21.25 22.1 44.4 30.16 67.94l4.05 13.64-97.67 53.3-3.77-13.2c-7.83-22.95-16.7-45.3-29.84-65.81-9.3-16.77-20.62-31.95-32.06-47.29-8.14-12.39-16.53-24.11-12.24-39.58 1-1.91 1.17-4.6 3-5.73 62.59-38.72 88.65-56.63 146.55-76.24 5.58-2.18 11.19-4.3 16.74-6.56 6.02-2.44 12.06-4.87 18-7.54 6.08-2.74 23.7-12.21 18.02-8.7-143.08 88.73-86.3 53.23-56.83 29.99zM13035.57 12523.28c-15.98 12.43-31.62 25.43-48.52 36.62-33.87 19.07-67.35 38.86-101.62 57.2-1.4.75-3.23.18-4.75-.26-6.54-1.91-9.48-8.98-11.4-14.75l99.25-53.83c.08.83-.45 2.6.38 2.47s1.12-1.32 1.85-1.77c.96-.6 1.99-1.09 2.99-1.63l-91.5 52.88c17.96-9.27 33.09-22.88 49.21-34.9zM11457.99 12580.77c11.54 20.04 26.94 37.25 41.73 54.85 11.06 13.38 24.9 24.02 36.68 36.75 8 7.02 12.92 16.13 17.5 25.56l-97.46 55.36c-4.15-8.45-9-16.22-16.03-22.63-11.83-12.9-25.75-23.72-36.7-37.43-14.86-18.13-29.55-36.4-42.62-55.9zM3503.58 4004.42c12.4 12.31 23.47 25.84 34.56 39.32 6.67 8.3 12.93 16.92 19.47 25.31 6.3 7.19 11.68 15.08 17.17 22.89 6.42 9.37 12.94 18.67 19.34 28.05 7.05 10.43 15.76 19.6 23.23 29.71 2.06 2.8 3.98 5.7 5.97 8.54 12.75 20.44 26.84 40.04 39.1 60.77 11.37 20.92 23.58 41.5 33.42 63.23 1.98 4.4 3.77 8.87 5.66 13.3 9.23 22.8 17.85 45.86 24.31 69.6 5.35 20.53 7.77 41.64 12.03 62.4a195 195 0 0 0 15.45 44.63c6.13 12.49 9.32 17.36 16.6 29.8 24.74 38.46 50.24 76.42 74.6 115.15 13.7 22.1 27.13 44.38 41.84 65.82 5.56 9.02 12.02 17.43 18.88 25.49a107 107 0 0 0 24 21.56c1.23.69 2.38 1.54 3.7 2.05 2.42.96 3.3 1.1 4.17-1.46.33-.96 1.27-3.52.38-3.02-31.55 17.68-126.9 75.35-92.72 54.68 2.2-5.53 1.92-11.6 3.4-17.34.75-2.55 2.06-4.78.55-7.27 1.1.75-2.1-2.37-1.85-1.6 13.8 41.9 81.03-43.35 97.35-52.87.83-.49.05 1.95.26 2.9.42 1.91 1.09 3.77 1.63 5.65 7.26 19.2 18.45 36.56 28.87 54.14 6.07 10.24 12.5 20.27 18.92 30.3 3.35 5.16 6.11 10.71 9.74 15.7.9 1.26 5.76 7.18 6.68 8.32 6.72 8.2 12.59 17.01 18.5 25.79a2405 2405 0 0 0 27 42.75c9.16 14.61 18.7 28.97 27.66 43.7 5.24 9.3 11.03 18.35 15.57 28.03 6.47 13.76 11.76 28.15 17.28 42.3 13.9 34.86 23.84 71.1 34.47 107.04a831 831 0 0 1 17.1 67.73c1.83 8.82 3.35 17.7 5.13 26.53 4.74 23.5 5.8 27.58 10.98 50.39l4.86 20.45-94.28 50.54-3.88-20.95c-9.65-48.15-19.46-96.38-33.56-143.46-10.95-35.43-22.15-70.8-35.57-105.39-9.44-23.39-19.86-46.37-33.5-67.67-9.33-14.49-19.1-28.68-28.07-43.39-8.83-14.22-17.51-28.56-27.52-42-5.87-8.45-11.6-17-18.04-25.04-6.36-7.96-12.5-16.07-17.44-25.02-6.22-10.3-12-20.85-17.72-31.44-10.22-18.44-21.1-36.51-30.7-55.3-.87-2.02-1.78-4.04-2.63-6.08-.67-1.6-3.3-3.81-1.9-4.83 68.18-49.8 74.07-92.5 102.29-53.64 2.67 4.64 4.9 9.75 3.5 15.19-.66 2.39-1.79 4.7-2.4 7.08-.92 3.59-.49 7.33-.8 10.98-.02 1.42 1.12 3.5-.07 4.28-32.4 21.17-65 73.5-100.52 58.12-4.02-1.75-7.62-4.38-11.21-6.84-9.32-7.05-17.67-15.15-25.43-23.89a167 167 0 0 1-19.05-27.25c-13.12-22.5-25.16-45.58-38.1-68.18-3.77-6.29-7.43-12.64-11.3-18.87-20.22-32.7-42.6-63.95-64.15-95.76-4.29-6.62-14.86-22.6-18.89-30.01-7.92-14.56-12.81-30.64-16.97-46.59-4.42-20.51-7.5-41.27-11.95-61.78-6.06-23.37-13.37-46.45-22.61-68.78-1.8-4.28-3.48-8.61-5.4-12.85-9.64-21.4-21.4-41.81-33.26-62.05a1570 1570 0 0 0-39.33-59.6c-9.78-12.86-20.71-24.78-30.35-37.75-6.74-9.15-12.74-18.79-19.5-27.92a423 423 0 0 0-17.14-22.33c-6.52-8.31-12.21-17.25-18.48-25.76-10.42-13.44-21.09-26.86-34.63-37.34zM4303.95 5434.81c14.5 4.37 26.9 13.29 39.41 21.49 9.77 7.13 19.69 13.96 30.18 19.98 6.58 3.84 13.22 7.7 19.02 12.67 2.7 2.32 5.18 5.02 7.63 7.58 6.6 6.4 10.14 12.57 13.33 21.08 3.32 7.94 5.48 16.22 7.07 24.65 1.87 9.21 3.7 18.43 4.85 27.76a98 98 0 0 0 4.49 22.74c3.99 9.39 9.41 18.11 14.9 26.7 6.24 8.78 13.04 17.11 21.04 24.35 3.26 3.1 7.04 5.52 10.56 8.28 35.64 27.99-29.62 25.3-92.2 61.54-6.94-12.93-10.36-27.25-13.28-41.53-2.22-11.96-1.49-24.14-2.32-36.22-.6-6.43-1.45-12.25-5.28-17.54-6.94-5.9-13.11-12.53-19.29-19.21-9.15-10.57-17.23-21.95-25.73-33.03-5.68-7.4-11.7-14.78-17.54-22.05-13.12-16.28-25.8-32.96-39.88-48.45-12.16-13.38-18.71-19.5-31.84-32.5-27.88-26.5-55.74-53-84.27-78.82l89.28-55.15c27.89 26.7 56.16 52.98 85.2 78.43 16.02 14.87 32.18 29.64 46.79 45.93 2.65 2.95 16.78 20.14 19.44 23.43 2.97 3.68 5.87 7.42 8.81 11.13 8.7 10.59 17.65 20.99 26.3 31.62 5.95 7.3 11.45 14.97 18.31 21.49 3.29 3.2 6.1 6.02 9.51 9 4.1 3.6 8.7 6.67 11.9 11.19 4.82 7.32 6.87 14.08 7.49 22.87 1.27 11.86-.02 23.76 1.2 35.63 2.04 12.4 4.42 25.33 11.8 35.81-127.45 81.05-65.59 83.75-99.2 56.2-3.7-3.04-7.52-5.96-10.93-9.33-8.33-8.11-15.45-17.37-22.27-26.76-6.08-9.25-11.95-18.69-16.33-28.88-1.73-4.6-3.79-9.28-4.76-14.12-.7-3.55-.58-7.3-1.42-10.84-.61-9.07-1.81-18.09-4.06-26.91-1.61-7.8-3.26-15.6-6.43-22.96-.42-1.15-1.76-4.93-2.39-6.19-2.1-4.17-5.4-7.55-8.43-11.03-7.32-7.6-15.67-12.77-24.87-17.84-10.34-6.42-20.04-13.67-30-20.64-11.33-7.4-22.8-15.98-36.92-16.15z" style="fill:#00d9ff;fill-opacity:1;stroke:#00d9ff;stroke-width:7.5;stroke-opacity:1" transform="matrix(.1 0 0 -.1 0 2332)"/><path d="M4454.83 5642.02c16.25 11.84 33.52 22.18 50.33 33.2 11.22 7.03 18.04 18.38 24.14 29.77 4.08 7.86 7.4 16.08 11.09 24.13 5.87 11.36 13.4 21.76 20.62 32.3a375 375 0 0 1 29.1 45.57c8.05 14.14 14.74 28.95 21.71 43.63 7.48 15.5 14.13 31.35 20.51 47.32 8.74 22.1 20.63 42.67 32.84 62.99q2.67 4.2 5.38 8.37c3.25 5 6.92 10.6 10.54 15.34 5.87 7.68 12.54 14.73 19 21.89 12.49 12.42 25.08 24.75 36.97 37.76 8.7 10.22 18.63 19.34 27.27 29.58l-96.1 57.56c-8.1-10.34-17.17-19.87-26.04-29.55a1372 1372 0 0 0-36.47-38.17c-13.37-14.8-26.47-29.84-35.72-47.68-12.24-20.85-23.92-42.06-33.7-64.19-7-15.5-13.86-31.04-21.12-46.41-6.97-14.47-13.01-29.4-21.05-43.34-8.45-15.46-17.8-30.38-28.54-44.39-7.98-10.85-16.21-21.59-22.72-33.41-3.72-7.84-7.05-15.83-10.52-23.78-5.54-10.49-10.52-18.78-20.65-25.63-16.38-11.76-33.29-22.81-51.06-32.37zM5407.3 7281.57c18.53 24.93 36.06 50.33 49.73 78.28 6.5 12.43 12.49 25.21 19.7 37.26 5.46 7.66 14.18 12.3 22.46 16.4-.65 7.94 11.26-5.24 8.45-3.73-31.3 16.9-61.4 35.98-92.84 52.59-1.43.75 1.53-2.91 1.8-4.51.27-1.63-.16-3.3-.24-4.95-3.88-14.64-10.25-28.77-17.89-41.83-28.05-48.06 12.74-39.42 94.04-70.06 3.2-1.21 2.7 6.3 4.05 9.45 7.26 25.9 13.74 52.07 20.11 78.22a556 556 0 0 0 13.2 58.26c5.51 18.61 13.34 36.28 22.04 53.58 11.76 21.87 23.55 43.66 36.44 64.89 9.63 14.42 21.9 26.96 34.75 38.53 11.55 9.17 23.76 17.39 35.66 26.06 12.24 10.57 26.04 19.02 38.95 28.65 11.6 8.44 16.4 21.92 21.09 34.9 3.5 13.65 9.77 26.38 14.71 39.54 5.07 13.56 12.73 25.9 17.97 39.37 5.93 16.04 13.42 31.42 20.61 46.92 8.67 15.98 17.81 31.73 26.87 47.51 8.15 15.12 15.82 30.5 23.52 45.86a946 946 0 0 1 25.54 67.04c5.2 16.85 12.5 32.25 23.7 45.84 22.1 25.98 50.97 44.48 78.36 64.25 14.08 8.8 27.13 19.22 41.7 27.27a44 44 0 0 0 6.83 3.27c1 .35 4.1-.34 3.18.2-32.26 18.67-65.09 36.34-97.63 54.52-3.77-7.54-9.88-13.76-15.8-19.67l96.12-58.68c6.9 7.35 14 14.87 18.6 23.95-31.59 21.12-62.46 43.34-94.75 63.36-.23.15-7.9-4.45-10.8-6.31-13.98-9.04-27.17-19.22-41.07-28.38-28.5-20.1-58.08-39.43-81.15-65.98-12.07-14.74-19.99-31.33-25.54-49.59-7.17-22.25-15.7-44.02-24.95-65.5-7.56-15.2-15.52-30.17-23.26-45.27-9.13-16.1-18.51-32.08-27.3-48.36-7.31-15.73-15-31.3-21.22-47.52-4.99-13.59-12.92-25.85-17.98-39.43-4.86-13.25-11.35-26-14.9-39.66-3.8-11.08-7.31-22.35-17.6-29.12-13.05-9.35-26.08-18.7-38.71-28.6-12.47-8.65-24.85-17.42-36.41-27.26-13.38-12.54-26.31-25.84-36.11-41.43-12.96-21.5-24.72-43.64-36.71-65.7-9.16-17.88-17.87-36-23.62-55.32-5.14-19.47-10.28-38.83-12.9-58.86-5.84-25.6-12.65-50.98-19.58-76.3-17.48-41.16-5.15-5.91 92.45-65.73.46-.28-1.07.65-1.1 1.18-.09 1.21.35 2.43.77 3.57 1.03 2.75 4.03 7.82 5.4 10.24a237 237 0 0 1 19.77 45.22c.72 2.86 1.86 5.64 2.17 8.57 4.9 45.69-72.6 87.97-113.18 66.64-9.82-5.68-19.62-11.77-25.8-21.6-7.16-12.46-13.1-25.6-19.43-38.5-12.8-27.51-29.83-52.44-48.71-76.15zM5067.8 6645.66a492 492 0 0 0 36 35.17l-95.23 58.85c-12.25-11.93-24.3-24.06-36.72-35.8z" style="fill:#00d9ff;fill-opacity:1;stroke:#00d9ff;stroke-width:7.5;stroke-opacity:1" transform="matrix(.1 0 0 -.1 0 2332)"/><path d="M5019.44 6793.12c3.43-16.14 4.72-32.94-.32-48.9-.99-3.13-2.46-6.09-3.69-9.13-9.4-18.97-26.81-31.4-43.6-43.38-17.03-11.71-35.03-21.83-53.01-31.98l92.01-59.86c18.32 10.42 36.91 20.42 54.25 32.45 18.84 13.04 37.12 27.46 47.35 48.56 3.75 9.28 5.35 12.13 7.49 22.13 2.92 13.66 1.6 27.34.56 41.11zM8628.09 7940.22c-4.77-19.93-13.24-38.64-22.23-56.96-7.57-16.1-17.83-30.52-29.16-44.15-13.4-15.55-27.37-30.6-40.74-46.17-9.74-10.65-19.59-21.31-30.5-30.78-3.77-3.26-12.13-9.7-16.1-12.8-14.45-10.3-26.07-22.42-36.6-36.58-10.7-13.75-18.64-29.3-27.71-44.1-10.01-16.76-19.05-34.06-29.21-50.73-9.44-16.4-19.41-32.48-29.07-48.75-6.72-10.67-13.11-21.55-18.46-32.97-3.72-7.52-7.1-15.22-12.2-21.9-11.65-13.12-25.32-24.21-37.66-36.65-16.2-16.32-18.89-20.06-34.55-38.08-37.34-42.84-66.39-91.76-94.75-140.74-18.5-33.11-37.43-65.98-56.01-99.04-13.58-24.91-29.03-48.74-42.58-73.65-7.06-12.26-11.33-25.79-17.19-38.6-2.85-6.23-7.63-15.59-10.7-21.7-9.07-18.24-19.18-36.09-26.02-55.32-16.77-56 20.03-40.22 94.89-85.24 12.01 5.98 21.44 15.9 31.69 24.4 5.5 4.28 9.53 10.07 14.4 14.97 1.76 1.77 7.23 6.14 8.99 7.58 4.4 3.9 9.51 7.21 13.68 11.38 4.34 4.34 7.68 9.63 11.09 14.68 6.01 8.73 9.63 18.45 12.55 28.54 2.12 9.4 6.57 17.95 11.7 26.02a172 172 0 0 0 17.1 22.99 168 168 0 0 1 26.34 35.04c10.39 18.95 15.98 39.88 19.88 61 3.64 24.71 4.3 49.74 6.08 74.63 1.52 28.17 9.55 55 19.87 81.05 10.37 25.13 25.63 47.74 42.32 69.04a237 237 0 0 0 51.85 45.36c16.21 10.72 35.4 13.95 54.1 17.54 14.52 1.78 28.56 5.76 42.05 11.33 13.22 4.8 24 13.6 33.83 23.4 9.03 10.36 14.67 22.76 18.6 35.79 2.75 12.65 3.47 25.66 3.28 38.57a105 105 0 0 1-4.53 29.53c-3.45 10.15-9.04 19.28-14.5 28.41-10.6 18.12-24.43 33.97-37.74 50.08l-101.18 43.23c12.25-15.82 25.81-30.73 36.28-47.83 5.28-8.74 10.96-17.22 15.38-26.43a76 76 0 0 0 6.16-26.54c.93-11.8.25-23.74-1.64-35.41-2.87-11.37-7.5-22.07-15.57-30.77-9.08-8.76-19.32-15.6-31.4-19.57-13.12-4.73-26.69-7.75-40.42-10.15-19.82-4.26-39.69-9.4-56.53-21.26-19.53-13.99-37.57-30.22-52.9-48.74-17.22-22.25-32.93-45.78-43.94-71.8-3.26-8.44-7.11-18.08-9.86-26.68-5.93-18.57-9.5-37.83-11.73-57.16-1.95-24.51-2.53-49.14-5.73-73.53-3.5-19.87-8.62-39.65-18.68-57.32-7.06-12.06-15.7-22.73-25.52-32.68-6.99-7.57-12.9-15.86-18.34-24.61-5.54-8.97-10.83-18.4-13.14-28.77-2.6-9-5.52-17.69-10.85-25.53-1.66-2.5-3.9-6.03-5.86-8.34-4.91-5.77-11.36-10.08-17-15.07-3.76-3.13-6.72-5.47-10.22-8.91-4.54-4.47-8.3-9.75-13.3-13.77-3.89-3.39-17.97-17.45-23.31-15.7-.83.27-1.14 1.33-1.71 2 30.96-18.92 61.99-37.72 92.87-56.76 1.3-.8-3.46.48-3.89 3.17-.7 4.41 2.08 10.6 2.52 14.9 5.74 19.07 15.09 36.83 24.25 54.44l11.1 22.11c5.96 12.5 10.63 25.55 16.84 37.93 12.76 25.24 28.11 49.04 41.56 73.92 18.33 33.18 36.46 66.48 54.5 99.82 27 48.9 54.99 97.67 92.97 139.09 16.08 17.36 18.6 20.86 35.43 36.24 13.57 12.4 28.53 23.32 41.15 36.77 5.78 7.35 9.96 15.54 13.71 24.1 4.83 11.24 10.88 21.9 17.28 32.3 9.34 16.38 19.08 32.53 28.52 48.84 10.07 16.69 19.66 33.66 29.4 50.54 8.94 14.5 16.91 29.62 27.42 43.1a171 171 0 0 0 34.71 34.38c17.04 13.81 33.26 28.65 47.51 45.38 13.71 15.43 27.59 30.72 41.17 46.26 11.83 14.37 22.82 29.37 30.43 46.48a516 516 0 0 1 23.85 57.97zM5814.74 7910.55c4.02 11.97 7.8 24.19 13.9 35.32 3.17 5.8 5.02 7.93 8.95 13.22 9.04 12.04 21.22 20.7 33.74 28.73 5.5 3.87 11.77 7 16.81 11.5 6.4 5.7 10.93 13.02 15.52 20.15 10.69 19.77 17.6 41.22 24.98 62.36 5.75 17.27 13.44 33.84 18.63 51.3 2.74 9.17 8.16 31.32 10.45 40.47l-95.75 51.82c-3.78-14.78-6.02-24.7-10.84-39.07-5.77-17.2-13.74-33.64-19.44-50.88-7.3-20.2-13.69-40.87-24.31-59.67-3.58-5.31-4.84-7.7-9.2-12.28-6.02-6.32-13.94-10.37-20.97-15.37-13.37-9.06-26.01-19.07-35.63-32.24-4.8-6.63-6-7.8-9.82-15.08-6.05-11.48-9.8-23.97-15.07-35.8zM3264.25 3694.26c13.92 17.32 25.02 37 41.18 52.4 9.97 8.8 22.74 12.68 34.72 17.84 13.4 4.97 26.3 11.12 39.24 17.2 5.64 2.72 11.03 6.39 17.07 8.27 1.3.4 2.7 1 4.03.72 1-.21 3.14-2.52 2.25-2.04-31.63 17.27-63.04 34.95-94.57 52.43 4.98-6.57 2.75-14.81.7-22.09-1.63-4.95-.7-2.7-2.67-6.83l98.12-55.65c2.63 5.45 1.51 2.7 3.4 8.28 3.35 9.92 5.38 20.4 3.6 30.86-100.44 60.67-69.98 76.01-125.55 48.04-12.94-5.93-25.9-11.75-39.21-16.8-13.2-5.6-26.47-11.4-36.8-21.7-15.5-16.59-26.73-36.51-41.8-53.5zM8879 8173.7c6.29 21.96 14.12 43.58 24.92 63.73 7.58 11.47 17.58 21.55 30.63 26.33 11.37 3.4 21.98 7.7 31.83 14.4 9.67 7.94 20.2 14.68 29.76 22.73 6.97 7.8 14.14 15.66 19.76 24.53 28.28 46.62-11.06 27.15-92.38 72.6-18.15-14.98-33.06-33.72-47.9-51.9a994 994 0 0 0-48.14-58.85c-7.03-6.88-12.26-15.6-20.5-21.2-3.91-2.66-11.03-6.3-15.03-8.43-9.14-4.9-18.8-8.7-28.3-12.85l93.07-61.9c9.75 4.3 19.62 8.4 28.96 13.58 6.02 3.38 11.11 5.96 16.6 10.16 8.28 6.34 13.87 15.4 21.04 22.84 16.41 19.4 32.07 39.41 47.66 59.47 14.14 17.06 28.34 35.27 46.93 47.65-126.24 84.22-72.72 89.34-99.4 45.57-4.94-7.86-11.33-14.9-17.76-21.56-9.33-7.54-19.18-14.46-28.87-21.51-9.94-5.54-20.73-8.72-31.12-13.26a93 93 0 0 1-34.03-32.75c-10.9-20.72-18.05-43.1-25.83-65.12zM6211.98 8677.8c14.89 10.64 30.4 20.63 44.04 32.88 8.32 7.46 10.2 10.06 17.33 18.17 8.76 10.72 14.97 23.09 22.3 34.76a99 99 0 0 0 16.25 18.04c.83.47 1.76.8 2.5 1.42 1.12.94 1.93 2.2 3.01 3.19 5.25 4.78 11.25 9.16 16.95 13.36a107 107 0 0 1 21.3 20.42c5.67 7.98 9.65 16.95 13.7 25.81 4.01 8.93 7.08 18.2 9.92 27.55 6.28 16.45 14.22 32.21 21.74 48.12 11.83 26.25 27.78 50.17 43.67 74.05 14.04 19.9 22.45 43.13 37.42 62.34 8.5 10.37 19.03 18.63 29.08 27.35 1.15.85 2.4 1.57 3.45 2.54 2.39 2.2 4.28 4.9 6.62 7.14 4.4 4.19 8.73 8.32 12.97 12.68 10.7 11.73 19.5 24.97 28.93 37.7 14.54 20.31 23.62 43.56 32.87 66.56a865 865 0 0 1 26.73 71.17c6.74 20.41 13.88 40.7 22.5 60.4 6.75 15.25 14.43 29.76 23.87 43.5 8.09 11.26 18.28 20.33 28.9 29.06 1.34.64 2.58 1.54 4.02 1.93.9.24 1.87-.08 2.81-.1-32.32 17.58-63.94 36.5-96.95 52.72-1.38.68-.83-2.96-1.5-4.33-2.05-4.21-4.82-7.61-7.57-11.37-6.06-10.06-14.66-17.53-23.33-25.15-8.98-5.85-16.42-13.53-23.66-21.35-8.78-9.66-17.67-19.22-26.1-29.2-17.47-20.14-32.93-41.92-47.88-63.96-13.29-19.07-23.84-39.68-30.53-61.92-2.83-15.57-5-31.03-9.82-46.13-6.02-15.32-17.19-27.57-26.33-40.97-2.64-3.87-5.02-7.9-7.52-11.86-13.32-21.75-26.68-43.48-37.87-66.41-5.86-10.35-9.73-21.82-17.14-31.21-5.45-8.73-12.2-16.53-18.85-24.35a66 66 0 0 0-10.24-8.63l95.28-60.15c4.04 3.34 8.02 6.75 11.44 10.75 6.76 8.02 13.59 16.03 19.22 24.9 7.45 10.35 12.25 22.07 17.67 33.55 10.3 22.82 23.4 44.13 36.58 65.38 12.16 18.2 26.97 34.83 36.05 54.9 5.23 15.35 8.07 30.52 9.95 46.61 5.62 21.34 15.45 41.12 27.82 59.38 14.66 21.84 30.38 42.93 48.47 62.08 8.54 9.68 16.85 19.54 25.86 28.8 7.16 7.53 15.06 14.03 23.32 20.32 9.2 8.17 17.51 17.09 24.22 27.5 1.25 1.73 14.13 19.92 12.53 21.12-67.46 50.91-67.81 84.18-105.22 56.76-11.31-9.43-21.7-19.74-30.24-31.84-2.29-3.29-7.65-10.86-9.7-14.32-5.88-9.94-9.54-21.05-15-31.2-8.71-20.05-16-40.67-23.08-61.34-7.7-23.93-15.44-47.84-25.55-70.9-9.04-22.1-18.26-44.22-32.64-63.51-8.97-12.36-17.45-25.2-28.12-36.22a609 609 0 0 0-22.84-21.52c-10.57-9.22-21.02-18.64-29.73-29.7-14.52-19.85-23.18-43.06-37.05-63.37-16-24.4-32.51-48.56-44.86-75.1-7.96-16.27-16.22-32.43-23.42-49.03-2.86-8.84-5.43-17.77-9.2-26.29-3.73-7.98-7.15-16.17-12.4-23.3-5.85-6.88-12.24-13-19.6-18.29a598 598 0 0 1-23.44-18.8c-6.4-6.41-12.83-13-17.7-20.68-6.74-11.28-12.34-23.24-20.46-33.66-17.04-19.74-38.06-35.03-60.39-48.37z" style="fill:#00d9ff;fill-opacity:1;stroke:#00d9ff;stroke-width:7.5;stroke-opacity:1" transform="matrix(.1 0 0 -.1 0 2332)"/><path d="M6435.93 9025.26c14.26 13.92 29.21 27.09 45.37 38.77 8.22 5.57 17.86 8.31 27.51 10.19 3.81.2 8.23 2.06 11.93.16.9-.45 3.08-2.54 2.2-2.05-94.36 52.81-110.3 85.51-92.33 50.25 1.9-6.03-2.82-11.02-6.8-14.95a133 133 0 0 0-12.41-10l95.35-60.24c4.58 3.69 9.24 7.32 13.34 11.54 6.47 7.07 11.62 15.31 12.27 25.12-5.92 47.21-72.77 76.69-116.25 64.18-10.67-3.12-20.96-7.08-29.7-14.19-16-12.42-30.52-26.56-45.92-39.73zM10182.39 10361.08a281 281 0 0 0 27.92 26.61c5.1 5.35 11.6 8.6 17.9 12.18 4.55 2.7 9.69 4.18 14.14 6.98l-94.17 61.55c-4.93-2.1-9.59-4.78-14.3-7.33-6.73-4.04-12.96-8.66-18.33-14.42-9.72-8.88-19-18.22-28.9-26.9z" style="fill:#00d9ff;fill-opacity:1;stroke:#00d9ff;stroke-width:7.5;stroke-opacity:1" transform="matrix(.1 0 0 -.1 0 2332)"/><path d="M10199.2 10404.01c10.17.32 20.3.35 30.44 1.4 2.05.22 4.12.3 6.14.7 1.78.35 3.47 1.03 5.2 1.54 4.26.92 7.64 3.05 11.1 5.54l-94.38 61.03a42 42 0 0 0-8.76-2.88c-13.38-2.08-26.93-2.12-40.43-1.44zM9697.02 14562.3c11.79 6.9 24.5 11.73 37.3 16.33 6.97 2.45 14.32 3.3 21.45 5.14 4.02 1 8.31 1.3 12.17 2.87 2.72 1.1 3.85 2.24 6.2 4.03 7.8 6.9 11.9 16.63 16.37 25.8 7.7 14.45 12.22 30.14 17.14 45.65 6.27 16.93 11.53 34.42 20.13 50.38 2.16 4 4.66 7.81 7 11.72 9.3 14.28 19.8 27.95 32.2 39.71 3.47 3.29 9.99 8.5 13.76 11.6 11.83 10.5 22.95 22.18 30.8 36.03 1.92 3.36 3.47 6.92 5.2 10.38l4.48 12-95.86 53.32-4.2-10.78c-1.6-3.06-3.04-6.22-4.8-9.18-7.65-12.85-18.5-23.37-29.6-33.2-5.93-5.35-8.08-7.08-13.7-13.04-12.2-12.93-22.76-27.3-32.63-42.05-2.58-4.12-5.33-8.15-7.75-12.37-9.27-16.17-15.39-33.9-22-51.24-4.84-14.87-9.34-29.92-16.97-43.68-4.61-8.53-1.26-2.4-5.64-10.21-2.15-3.83-4.4-7.6-8.38-9.79-5.25-1.94-10.91-2.51-16.3-4.05-7.46-1.59-14.82-3.59-21.8-6.75-12.99-5.34-25.59-11.55-38.44-17.2zM12071.45 13659.1c19.4 25.6 41.53 48.91 63.88 71.92 16.7 14.66 27.22 34.01 37.55 53.31 5.74 12.57 3.09 6 7.86 19.75l-97.86 54.01c-4.26-12.52-1.84-6.49-7.19-18.12-9.7-18.55-19.65-36.8-35.38-51.07-21.77-23.5-43.15-47.35-64.6-71.13z" style="fill:#00d9ff;fill-opacity:1;stroke:#00d9ff;stroke-width:7.5;stroke-opacity:1" transform="matrix(.1 0 0 -.1 0 2332)"/></g></svg>