<svg id="svg" version="1.1" xmlns="http://www.w3.org/2000/svg" viewBox="0 0 1024 1024" style="display: block;"><path d="M0 0 C337.92 0 675.84 0 1024 0 C1024 337.92 1024 675.84 1024 1024 C686.08 1024 348.16 1024 0 1024 C0 686.08 0 348.16 0 0 Z " transform="translate(0,0)" style="fill: #0A1117;"/><path d="M0 0 C126.06 0 252.12 0 382 0 C382 126.06 382 252.12 382 382 C255.94 382 129.88 382 0 382 C0 255.94 0 129.88 0 0 Z " transform="translate(233,233)" style="fill: #091A22;"/><path d="M0 0 C126.06 0 252.12 0 382 0 C382 126.06 382 252.12 382 382 C255.94 382 129.88 382 0 382 C0 255.94 0 129.88 0 0 Z M49 49 C49 142.72 49 236.44 49 333 C142.72 333 236.44 333 333 333 C333 239.28 333 145.56 333 49 C239.28 49 145.56 49 49 49 Z " transform="translate(233,233)" style="fill: #07C9DA;"/><path d="M0 0 C47.19 0 94.38 0 143 0 C143 126.06 143 252.12 143 382 C16.94 382 -109.12 382 -239 382 C-239 334.81 -239 287.62 -239 239 C-222.83 239 -206.66 239 -190 239 C-190 270.02 -190 301.04 -190 333 C-96.28 333 -2.56 333 94 333 C94 239.28 94 145.56 94 49 C62.98 49 31.96 49 0 49 C0 32.83 0 16.66 0 0 Z " transform="translate(648,409)" style="fill: #EAEFF3;"/></svg>